<?xml version="1.0" encoding="UTF-8" standalone="no"?>
<!-- Created with Inkscape (http://www.inkscape.org/) -->

<svg
   xmlns:dc="http://purl.org/dc/elements/1.1/"
   xmlns:cc="http://creativecommons.org/ns#"
   xmlns:rdf="http://www.w3.org/1999/02/22-rdf-syntax-ns#"
   xmlns:svg="http://www.w3.org/2000/svg"
   xmlns="http://www.w3.org/2000/svg"
   xmlns:sodipodi="http://sodipodi.sourceforge.net/DTD/sodipodi-0.dtd"
   xmlns:inkscape="http://www.inkscape.org/namespaces/inkscape"
   id="svg2"
   height="32px"
   width="32px"
   version="1.1"
   viewBox="0 0 375 92"
   inkscape:version="0.92.2 5c3e80d, 2017-08-06"
   sodipodi:docname="ww2.svg">
  <defs
     id="defs12" />
  <sodipodi:namedview
     pagecolor="#ffffff"
     bordercolor="#666666"
     borderopacity="1"
     objecttolerance="10"
     gridtolerance="10"
     guidetolerance="10"
     inkscape:pageopacity="0"
     inkscape:pageshadow="2"
     inkscape:window-width="1440"
     inkscape:window-height="775"
     id="namedview10"
     showgrid="false"
     inkscape:zoom="1.9000914"
     inkscape:cx="233.89163"
     inkscape:cy="63.982025"
     inkscape:window-x="0"
     inkscape:window-y="1"
     inkscape:window-maximized="1"
     inkscape:current-layer="svg2" />
  <metadata
     id="metadata7">
    <rdf:RDF>
      <cc:Work
         rdf:about="">
        <dc:format>image/svg+xml</dc:format>
        <dc:type
           rdf:resource="http://purl.org/dc/dcmitype/StillImage" />
        <dc:title />
      </cc:Work>
    </rdf:RDF>
  </metadata>
  <g
     id="layer1"
     transform="translate(585 -350.23)" />
  <path
     style="fill:#aa8800;fill-opacity:1;stroke-width:0.31775832"
     d="m 240.76047,89.651833 c -5.47892,-0.645376 -9.43681,-3.648859 -11.67555,-8.860105 -0.48424,-1.127167 -1.50967,-4.26185 -2.27877,-6.965964 -1.57342,-5.532099 -2.42225,-7.959253 -3.66592,-10.48214 C 221.77428,60.572641 221.2681,58.987811 218.9939,50.361359 215.8676,38.502901 207.4135,4.8929852 207.4135,4.32265 c 0,-1.5422059 8.73147,-2.7679215 13.22762,-1.8568828 4.68109,0.9485 7.94628,3.6936589 10.52864,8.8517428 1.29986,2.596412 2.05828,4.932761 3.88838,11.978127 2.08074,8.010207 2.77552,10.14166 4.50988,13.835458 1.16592,2.483101 1.73391,4.224442 3.54859,10.879153 3.03383,11.125456 3.33736,12.08809 3.57921,11.352165 0.10686,-0.325194 0.78682,-4.795108 1.51107,-9.933148 1.11789,-7.930773 1.46094,-9.814205 2.27114,-12.468751 1.23389,-4.042874 1.35279,-4.989956 1.47033,-11.713722 l 0.0982,-5.616953 h -0.53885 c -0.91798,0 -1.28946,-0.26001 -1.79931,-1.259433 -3.31124,-6.490561 -1.70744,-12.6893472 3.9279,-15.1815678 2.4239,-1.0719558 3.80236,-1.2613529 9.31315,-1.2796142 5.84183,-0.019307 9.30021,0.1864104 15.94721,0.9488627 l 4.67095,0.5357752 v 8.1179831 8.117994 h -1.16855 c -0.6427,0 -1.2249,0.0912 -1.29378,0.202603 -0.0689,0.111424 -0.38793,1.442952 -0.70903,2.95894 -0.38937,1.838429 -0.94437,3.542992 -1.66658,5.11851 -1.70343,3.716197 -2.01573,5.099438 -7.82159,34.645317 -1.50807,7.674539 -2.95496,14.80511 -3.21526,15.845727 -1.44256,5.766627 -4.85106,9.454035 -10.08399,10.90918 -1.06812,0.297023 -2.84404,0.392927 -8.3342,0.450122 -3.83728,0.04 -7.66863,-0.0085 -8.51415,-0.108405 z"
     id="path3350"
     inkscape:connector-curvature="0" />
  <path
     style="fill:#aa8800;fill-opacity:1;stroke-width:0.31775832"
     d="m 176.48961,89.846606 c -0.81357,-0.121814 -2.35675,-0.539584 -3.4293,-0.928394 -4.69846,-1.703219 -7.54726,-5.387459 -9.41246,-12.172804 -0.28606,-1.040607 -0.70969,-2.583794 -0.94141,-3.429297 -0.23172,-0.845502 -1.13073,-4.357572 -1.99779,-7.804607 -0.86706,-3.447036 -2.04343,-8.076597 -2.61416,-10.287901 -0.57072,-2.211303 -1.69212,-6.574796 -2.49197,-9.696637 -3.51707,-13.727149 -4.52433,-17.049427 -6.09486,-20.102799 -0.60215,-1.170686 -1.36245,-2.926726 -1.68955,-3.902298 l -0.59473,-1.773779 -1.8329,-0.06912 -1.8329,-0.06912 V 11.974906 4.339962 l 4.19794,-0.8670708 c 6.63558,-1.3705581 6.90588,-1.3939821 17.47194,-1.5142273 11.38238,-0.1295464 12.30747,-0.03552 15.61429,1.5878378 3.4495,1.693363 5.45562,4.5153431 5.69526,8.0114773 0.15448,2.253991 -0.12788,3.54632 -1.27968,5.856738 l -0.84114,1.687272 -1.15947,0.111414 c -0.63772,0.06133 -1.22401,0.175935 -1.30288,0.254805 -0.0788,0.07883 -0.0238,1.131923 0.12241,2.340124 0.1462,1.208201 0.38369,3.899558 0.52776,5.980792 0.17726,2.560487 0.4481,4.472303 0.83762,5.912578 0.56983,2.106952 1.26987,6.178541 3.15139,18.32902 1.23613,7.982688 1.21613,7.875968 1.43323,7.644896 0.16977,-0.180682 1.18334,-4.827321 3.91172,-17.932796 0.59577,-2.861692 1.29453,-5.788419 1.55281,-6.503842 1.3966,-3.86856 1.96604,-5.928013 2.70943,-9.798994 2.54623,-13.258659 2.90653,-14.21597 6.81544,-18.1084122 1.37159,-1.3658114 2.63998,-2.5145778 2.81866,-2.5528391 0.23483,-0.05024 0.62795,1.0639452 1.41856,4.0205597 1.8263,6.8297936 9.14777,36.4966536 9.14777,37.0670956 0,0.29345 -0.80116,3.529904 -1.78036,7.192118 -1.58838,5.940621 -1.94444,6.99008 -3.30209,9.733117 -1.51659,3.064145 -2.41101,5.59196 -4.51889,12.771193 -2.23033,7.596245 -4.28557,10.605521 -8.78518,12.863246 -2.78001,1.394899 -3.44163,1.480296 -12.12243,1.564808 -4.35757,0.04245 -8.58851,-0.02251 -9.40208,-0.144352 z"
     id="path3352"
     inkscape:connector-curvature="0" />
  <path
     style="fill:#aa8800;fill-opacity:1;stroke-width:0.31775832"
     d="m 193.24469,35.475567 c -0.0322,-0.508224 6.815,-34.3043046 7.07968,-34.94338641 0.20505,-0.49507131 0.36485,-0.5318712571 2.29487,-0.5285006 1.14096,0.00213334 2.20164,0.08447989 2.35706,0.18327442 0.15543,0.0987732 0.55453,1.33052619 0.88689,2.73713749 0.68761,2.9100546 0.70869,3.0889771 0.27102,2.2990155 -0.3165,-0.5712419 -0.31668,-0.5711245 -2.59337,1.6313577 -4.10669,3.9728369 -4.61766,5.1627239 -6.78293,15.7951989 -0.9007,4.422821 -1.80472,8.133611 -2.45773,10.088434 -0.56815,1.700723 -1.04312,2.932583 -1.05549,2.737469 z"
     id="path3354"
     inkscape:connector-curvature="0" />
  <path
     style="fill:#aa8800;fill-opacity:1;stroke-width:0.31775832"
     d="m 188.83773,9.57844 c -5e-5,-5.3331552 0.031,-7.5486295 0.069,-4.9232785 0.0381,2.6253404 0.0381,6.9888325 1e-4,9.6966375 -0.038,2.707804 -0.0691,0.559796 -0.0691,-4.773359 z"
     id="path3356"
     inkscape:connector-curvature="0" />
  <path
     style="fill:#aa8800;fill-opacity:1;stroke-width:0.31775832"
     d="m 184.47267,19.031835 c 0,-0.0688 0.31019,-0.739476 0.68931,-1.490515 1.75847,-3.483516 1.87187,-6.37245 0.37008,-9.4286273 -1.01257,-2.0606158 -2.57875,-3.5348751 -4.9617,-4.6704788 -2.94845,-1.4051074 -3.2558,-1.4351127 -14.33431,-1.3993901 -10.90212,0.0352 -11.92133,0.1131092 -18.30316,1.4000727 -2.2113,0.4459301 -4.10038,0.8115509 -4.19793,0.8125002 -0.0976,9.494e-4 -0.17738,-0.9561266 -0.17738,-2.126813 V 5.3333259e-5 h 22.54854 22.54853 L 188.80636,4.7012521 c 0.0834,2.5856498 0.0834,6.8959369 -1e-5,9.5783869 l -0.15172,4.877198 h -2.09099 c -1.15003,0 -2.09097,-0.05621 -2.09097,-0.125002 z"
     id="path3358"
     inkscape:connector-curvature="0" />
  <path
     style="fill:#aa8800;fill-opacity:1;stroke-width:0.31775832"
     d="m 165.3418,91.112993 c -2.08168,-8.067829 -17.05416,-67.733644 -17.05416,-67.961345 0,-0.409845 1.53818,2.775153 2.29678,4.755812 1.37976,3.602427 2.30619,7.010582 8.58253,31.573204 4.71497,18.452188 4.96292,19.315717 6.38361,22.231318 1.976,4.055227 4.31783,6.120557 8.47668,7.47583 l 2.28606,0.74498 8.27762,-0.01248 c 4.55269,-0.0064 8.9527,-0.122816 9.7778,-0.257631 2.45621,-0.401323 5.30646,-1.934067 7.26205,-3.905232 2.0713,-2.087784 3.22461,-4.252976 4.67438,-8.775497 0.58378,-1.821075 1.59096,-4.960655 2.23818,-6.976844 1.00289,-3.124166 4.04723,-10.511004 4.24881,-10.309415 0.0362,0.03616 -1.75084,6.920353 -3.97117,15.298123 -2.22035,8.37778 -4.14122,15.631423 -4.26863,16.11922 l -0.23161,0.886879 h -19.37506 -19.37504 l -0.22883,-0.88689 z"
     id="path3360"
     inkscape:connector-curvature="0" />
  <path
     style="fill:#aa8800;fill-opacity:1;stroke-width:0.31775832"
     d="m 229.71532,91.338956 c -0.29384,-0.186784 -8.46324,-31.703743 -8.26833,-31.898655 0.0603,-0.06027 0.24067,0.296651 0.40088,0.793151 0.16022,0.496512 0.79819,2.020211 1.41765,3.386022 1.03535,2.282706 1.67049,4.155877 4.49057,13.244184 0.54488,1.756051 1.35609,3.944176 1.80264,4.862522 1.39797,2.874993 3.63859,5.165272 6.35344,6.494273 2.69743,1.320489 3.49941,1.414398 12.07908,1.414398 4.31249,0 8.41414,-0.106346 9.1148,-0.236223 2.93949,-0.545056 6.67632,-3.131345 8.3724,-5.794616 0.87866,-1.379753 1.8707,-3.783291 2.2495,-5.450286 0.14645,-0.644501 2.16905,-10.643772 4.49463,-22.22062 2.32557,-11.576837 4.54629,-22.166273 4.93491,-23.532084 0.76656,-2.693906 2.70477,-7.430614 2.56453,-6.267341 -0.047,0.390229 -2.89935,15.262688 -6.33848,33.049895 l -6.25291,32.340382 -18.56554,-0.0021 c -10.21103,-0.0011 -18.69343,-0.08341 -18.84977,-0.182837 z"
     id="path3362"
     inkscape:connector-curvature="0" />
  <path
     style="fill:#aa8800;fill-opacity:1;stroke-width:0.31775832"
     d="m 297.28481,89.624291 c -3.96283,-0.929417 -6.21376,-2.527548 -7.64079,-5.424835 -0.72874,-1.479592 -0.75489,-1.636392 -0.74901,-4.493562 0.006,-2.969563 0.47594,-5.469581 1.40086,-7.454048 0.33607,-0.721002 1.14203,-5.077689 1.57511,-8.514121 0.13113,-1.040618 0.29802,-6.468365 0.37085,-12.061669 0.15713,-12.069807 -0.11329,-18.285948 -0.98642,-22.674102 -0.45645,-2.29397 -0.59271,-3.713648 -0.59271,-6.175436 v -3.196679 h -2.36501 -2.36505 v -8.15937 c 0,-6.935926 0.051,-8.1593696 0.33985,-8.1593696 0.1869,0 2.73354,-0.2702503 5.65921,-0.6005752 11.64483,-1.3147288 19.69075,-1.2746435 32.37362,0.1612905 l 4.67092,0.5288419 v 8.1145914 8.114591 h -2.36501 -2.36505 v 1.720851 c 0,2.192979 -0.38067,5.236974 -0.88889,7.107852 -0.3524,1.297267 -0.39724,3.256955 -0.40413,17.659677 l -0.007,16.200489 0.56136,2.01028 c 0.40028,1.433353 0.59592,2.875654 0.68178,5.025689 l 0.12043,3.01542 h 2.33361 2.33365 v 8.104298 8.104298 l -3.96142,0.441204 c -2.17878,0.242677 -4.70641,0.533781 -5.61695,0.646912 -0.91054,0.113141 -5.80617,0.255935 -10.87916,0.317332 -8.6113,0.104214 -9.35708,0.08032 -11.23392,-0.35985 h 3e-5 z"
     id="path3364"
     inkscape:connector-curvature="0" />
  <path
     style="fill:#aa8800;fill-opacity:1;stroke-width:0.31775832"
     d="m 85.991311,91.112993 c -0.07029,-0.227626 -1.892629,-7.331606 -4.04963,-15.786602 -2.156999,-8.454996 -4.607682,-18.010449 -5.44596,-21.234338 -1.560347,-6.000877 -1.732442,-6.842071 -1.205572,-5.892781 0.16599,0.299082 0.706729,0.788169 1.201641,1.086857 1.328408,0.801727 4.042054,3.586277 5.229866,5.36652 1.892601,2.83654 2.326499,4.088773 5.77031,16.653182 1.651222,6.024312 2.356123,8.002304 3.294063,9.243294 1.162428,1.538003 3.400161,3.308806 4.881829,3.863174 2.723231,1.018889 13.377662,1.252019 16.789522,0.36738 2.96741,-0.769407 5.16913,-2.6503 6.61675,-5.652568 0.69046,-1.431976 1.0784,-3.065115 2.70056,-11.368827 5.10159,-26.114683 7.43382,-37.80367 7.95491,-39.86932 0.89039,-3.529659 2.12157,-6.883959 3.9331,-10.715644 1.04082,-2.201501 1.66456,-3.820869 1.66456,-4.321605 0,-1.572424 -1.44118,-3.0270567 -4.42262,-4.4639293 -3.59487,-1.732499 -4.08804,-1.8137468 -10.47184,-1.725203 l -5.61039,0.07776 -1.50021,0.8133536 c -1.57293,0.8527774 -2.38168,1.7068136 -2.98603,3.1532217 -0.63977,1.531145 -0.45937,3.074929 0.82216,7.036161 1.92293,5.943757 2.24207,7.723531 2.22551,12.411108 -0.0247,7.013708 -1.6428,13.731448 -4.24375,17.619123 -1.14977,1.718568 -4.84317,5.504525 -4.84012,4.961401 0.001,-0.192064 0.8431,-6.30909 1.87115,-13.593389 2.44453,-17.320712 2.69897,-19.275355 2.53102,-19.443301 -0.0775,-0.07755 -1.73882,-0.192363 -3.69163,-0.25504 l -3.55054,-0.113973 V 9.6645092 0 h 19.13093 19.13094 l 0.15979,4.5526977 c 0.0879,2.5039751 0.12611,6.8940703 0.085,9.7557623 l -0.0748,5.203076 -1.00406,0.07264 c -0.65613,0.04747 -1.0801,0.21472 -1.22346,0.482592 -0.12066,0.225461 -0.49881,1.842376 -0.84033,3.593136 -0.3415,1.75076 -3.33084,17.178291 -6.64296,34.283398 -3.31213,17.105117 -6.1348,31.658942 -6.27262,32.341853 l -0.25059,1.241641 H 104.8884 c -17.669186,0 -18.776813,-0.02421 -18.897129,-0.413887 z"
     id="path3366"
     inkscape:connector-curvature="0" />
  <path
     style="fill:#aa8800;fill-opacity:1;stroke-width:0.31775832"
     d="M 100.83083,85.145738 C 96.366679,84.819903 95.299266,84.478528 92.921222,82.616162 91.419274,81.439897 90.426569,80.137926 89.682449,78.368371 89.40142,77.700073 88.111245,73.375855 86.815398,68.758998 84.189284,59.402659 83.438832,57.257019 82.030314,55.077769 81.089607,53.622304 77.996925,50.393455 75.94044,48.719762 L 74.923363,47.891997 73.758796,43.398436 C 73.118283,40.926972 70.618237,31.088309 68.203144,21.534733 64.035835,5.0498063 63.83405,4.1485169 64.243554,3.849072 c 0.237325,-0.1735358 1.284853,-0.6019299 2.32784,-0.951988 1.790848,-0.6010552 2.13975,-0.6360845 6.271657,-0.6297272 4.098666,0.0064 4.483471,0.04544 6.085856,0.6186125 3.141794,1.1238491 4.999161,2.4959325 6.805678,5.027545 2.473091,3.4657237 3.554768,6.4132707 6.512764,17.7471647 1.346431,5.15899 2.61571,8.932105 3.791385,11.270395 1.315128,2.615666 1.349255,2.719602 3.779639,11.511643 2.899727,10.489884 3.113657,11.199227 3.313787,10.987227 0.0965,-0.102187 0.38989,-1.569331 0.65208,-3.260326 l 0.47671,-3.074545 2.39853,-2.463389 c 2.08718,-2.143634 2.54913,-2.772956 3.5588,-4.848324 2.12555,-4.36905 3.12336,-9.435613 3.12456,-15.86562 9.6e-4,-4.563322 -0.19756,-5.764014 -1.84785,-11.182406 -1.43802,-4.721476 -1.67609,-6.10237 -1.28984,-7.481899 0.38689,-1.3818647 1.73549,-2.9202093 3.31244,-3.7784907 1.20855,-0.6577805 1.30693,-0.6705058 6.11489,-0.7911669 6.19571,-0.1554878 7.63969,0.053547 10.80397,1.5641471 3.52806,1.6842537 5.0397,3.2226515 4.77421,4.8587345 -0.0656,0.404362 -0.91526,2.543026 -1.88808,4.75258 -3.21139,7.293963 -3.16107,7.08942 -8.81412,35.827097 -4.4632,22.688918 -4.66334,23.609439 -5.54071,25.484349 -1.34551,2.875313 -4.234,5.161315 -7.21988,5.713965 -1.78881,0.331093 -7.94188,0.47825 -10.91704,0.261088 z"
     id="path3368"
     inkscape:connector-curvature="0" />
  <path
     style="fill:#aa8800;fill-opacity:1;stroke-width:0.31775832"
     d="M 96.166737,37.187703 C 94.596539,33.73302 93.925647,31.703316 91.856478,24.147486 89.646002,16.075668 88.691005,13.200334 87.371075,10.642705 85.419657,6.8614518 83.240789,4.7077268 79.899944,3.2577981 78.166745,2.5055965 78.157768,2.5044445 73.316059,2.4159433 68.338038,2.3249568 67.977437,2.3673034 65.334069,3.354438 64.267986,3.7525388 64.0907,3.9076532 64.080227,4.4514818 c -0.0067,0.3483729 -0.281102,-0.4136741 -0.60976,-1.693427 -0.328654,-1.2797635 -0.52725,-2.39723397 -0.441318,-2.48329252 0.235624,-0.235957 22.199224,-0.32693287 23.091769,-0.0956799 l 0.774755,0.20076772 5.260054,19.4990019 c 2.893027,10.724444 5.23876,19.57769 5.212739,19.673872 -0.02603,0.09621 -0.566801,-0.968095 -1.201729,-2.365042 z"
     id="path3370"
     inkscape:connector-curvature="0" />
  <path
     style="fill:#aa8800;fill-opacity:1;stroke-width:0.31775832"
     d="M 46.142309,53.121377 C 46.129029,53.005772 47.175383,47.790878 48.46754,41.53271 49.759698,35.274554 52.17346,23.449365 53.83146,15.254528 55.489456,7.0596808 56.95987,0.27661828 57.099038,0.18105575 57.23821,0.08548255 58.323688,0.00566399 59.511214,0.00367999 L 61.670354,4.7999933e-4 63.148587,5.9217838 c 0.81303,3.2567208 1.416389,5.9831592 1.340801,6.0587432 -0.0756,0.07563 -0.208532,-0.145813 -0.295426,-0.49202 -0.201196,-0.801642 -0.529316,-0.685909 -1.344214,0.474111 -1.001298,1.425363 -1.810809,4.11689 -4.51934,15.02623 -2.50839,10.103228 -3.808278,14.378529 -5.242929,17.243858 -0.940355,1.878099 -3.366509,4.929295 -5.130135,6.451789 -0.752972,0.650015 -1.404707,1.444787 -1.54624,1.885565 -0.134558,0.419072 -0.255516,0.667359 -0.268795,0.551743 z"
     id="path3372"
     inkscape:connector-curvature="0" />
  <path
     style="fill:#aa8800;fill-opacity:1;stroke-width:0.31775832"
     d="M 33.221583,89.864782 C 29.14042,89.321401 25.394933,87.101724 23.255807,83.958763 21.248561,81.009583 21.262355,81.056485 13.865285,52.030808 9.4121917,34.557115 8.504496,31.337098 5.5650887,22.586134 3.0434128,15.078806 2.7337828,13.758882 2.8843335,11.158235 3.0869076,7.6588587 4.9094675,4.9799611 8.1367257,3.4379579 10.616833,2.2529569 12.600932,1.9497466 19.038524,1.7719655 25.330317,1.5982058 32.347699,1.918664 34.743988,2.4891699 c 3.238031,0.7709109 6.23506,3.1216276 7.65531,6.0044396 0.672198,1.3644248 0.747307,1.7324775 0.748098,3.6658085 6.36e-4,1.968978 -0.07974,2.347303 -0.961111,4.514127 l -0.961995,2.365031 -1.272828,0.07339 c -0.700056,0.04032 -1.336654,0.176629 -1.41466,0.302847 -0.07801,0.126219 0.04702,1.636393 0.277845,3.355942 0.23082,1.71955 0.36484,3.476966 0.297826,3.90535 -0.174965,1.118441 0.312025,4.765358 0.985549,7.38048 0.650177,2.524476 1.145308,5.436344 2.965835,17.44212 0.695291,4.585209 1.330829,8.336745 1.412312,8.336745 0.08148,0 0.386886,-1.090867 0.678681,-2.424156 1.045952,-4.779268 1.034131,-4.753423 3.236394,-7.077228 5.206154,-5.493475 5.863769,-7.064662 10.268658,-24.534216 1.063051,-4.216016 2.279105,-8.75666 2.70234,-10.090312 0.813878,-2.564615 1.845035,-4.593785 2.334405,-4.593785 0.161587,0 0.477395,0.310815 0.701799,0.690698 0.224404,0.379882 2.272353,8.191711 4.551,17.359623 3.625591,14.587223 4.11581,16.782612 3.925326,17.579197 -0.470902,1.969235 -2.918514,10.930012 -3.381752,12.380676 -0.26999,0.845493 -0.895385,2.282259 -1.389766,3.192796 -1.309622,2.412018 -2.137358,4.633658 -3.888314,10.436209 -2.695245,8.931828 -3.673076,10.995665 -6.458504,13.631459 -2.373156,2.245671 -4.522858,3.057308 -9.154986,3.45656 -2.995142,0.258144 -13.493032,0.273067 -15.379867,0.02187 v 0 z"
     id="path3374"
     inkscape:connector-curvature="0" />
  <path
     style="fill:#aa8800;fill-opacity:1;stroke-width:0.31775832"
     d="M 22.12029,91.741835 C 22.051528,91.558571 19.544697,81.723812 16.549559,69.886815 6.0560921,28.415939 3.951369,20.218724 3.7214327,19.925466 3.5733637,19.736623 2.8593735,19.629839 1.7448172,19.629839 H 0 V 9.814941 5.3333259e-5 H 22.704327 45.408656 V 9.57844 19.156837 h -2.103277 -2.103274 l 0.914369,-2.305916 c 0.839616,-2.117395 0.914889,-2.495613 0.920755,-4.626458 0.0055,-2.031699 -0.07245,-2.4880072 -0.627007,-3.6658082 C 41.086613,5.7474907 37.448328,3.0162518 34.174743,2.3763274 31.535609,1.8604347 22.68143,1.5877631 17.47319,1.8620027 11.764783,2.1625783 10.09276,2.4798685 7.7614913,3.7049122 3.9841489,5.6898588 2.2596206,9.4920401 3.0577946,14.07549 c 0.1546751,0.888212 1.4015365,5.082137 2.7708079,9.319848 3.0092951,9.313363 3.7734498,12.05017 8.3586125,29.936236 7.611972,29.693185 7.417907,29.102871 10.621228,32.308339 1.412938,1.413897 2.22888,2.005064 3.80847,2.759345 3.140141,1.499476 3.86837,1.592627 12.298177,1.573033 7.504545,-0.01749 9.996997,-0.212533 12.41643,-0.971849 2.973195,-0.933098 5.738014,-3.42006 7.408978,-6.664375 0.999686,-1.940979 1.725313,-3.974587 4.188935,-11.739739 1.337727,-4.216431 4.009382,-10.723419 4.288316,-10.444486 0.07196,0.072 -8.162241,31.404628 -8.288586,31.539614 -0.02386,0.02549 -8.737472,0.122219 -19.363606,0.214965 C 25.05402,92.050528 22.22714,92.026603 22.12029,91.741835 Z"
     id="path3376"
     inkscape:connector-curvature="0" />
  <path
     style="fill:#aa8800;fill-opacity:1;stroke-width:0.31775832"
     d="M 86.817871,91.318369 86.011229,91.172118 82.499526,77.454922 C 80.568088,69.910463 77.817249,59.161379 76.386549,53.568075 74.955848,47.974771 71.649493,34.884303 69.039092,24.478163 66.428689,14.072002 64.03935,4.6532629 63.729449,3.5476111 62.776273,0.1469118 62.676847,0.37994614 65.15669,0.20247438 c 2.845516,-0.20364771 19.353702,-0.20964237 20.673378,-0.007467 l 1.043591,0.15985044 3.833834,14.23669518 c 2.108613,7.830186 4.442283,16.610377 5.185946,19.511536 0.743662,2.901158 1.507741,5.806957 1.697951,6.457345 0.190213,0.650389 1.249463,4.428527 2.353893,8.395871 2.761587,9.9202 2.939737,10.494716 3.179857,10.254599 0.11496,-0.114965 0.42362,-1.524403 0.6859,-3.132102 0.26229,-1.607688 0.61219,-3.090182 0.77756,-3.294417 0.24511,-0.302709 0.24325,-0.336789 -0.01,-0.184394 -0.24102,0.145002 -0.28062,0.0096 -0.17656,-0.604991 0.15657,-0.924287 3.77058,-26.998843 4.1684,-30.074401 0.1483,-1.146527 0.20687,-2.147357 0.13015,-2.224072 -0.0767,-0.07669 -1.73722,-0.190773 -3.69002,-0.25345 l -3.55055,-0.113973 V 9.6646052 9.5999866e-5 h 19.11924 19.11924 L 139.85364,4.7892947 c 0.19663,6.0687493 0.17865,12.5512463 -0.0382,13.7737733 -0.12204,0.688105 -0.29439,0.962654 -0.63675,1.014345 -1.37547,0.207701 -1.51963,0.304618 -1.75236,1.178238 -0.20865,0.783252 -13.73501,70.365289 -13.73501,70.655422 0,0.169941 -35.922931,0.07968 -36.873422,-0.09269 z M 107.5592,85.203295 c -0.74285,-0.04683 -2.01997,-0.04715 -2.83804,-9.6e-4 -0.81808,0.04629 -0.2103,0.08459 1.35062,0.08501 1.56093,3.2e-4 2.23027,-0.03744 1.48742,-0.08427 v 9.6e-5 z m 7.799,-1.718056 c 0.77959,-0.520586 1.5633,-1.132543 1.74159,-1.359892 0.17829,-0.227349 -0.0483,-0.119456 -0.5036,0.239765 -0.45527,0.359221 -1.35989,0.970175 -2.01028,1.357673 -0.65039,0.387498 -1.06161,0.705546 -0.91384,0.706772 0.14777,0.0011 0.90653,-0.423722 1.68613,-0.944318 z m -20.993338,0.145973 c 0,-0.05013 -0.292671,-0.269248 -0.650384,-0.48704 l -0.650385,-0.395988 0.558334,0.487039 c 0.54484,0.475274 0.742435,0.58066 0.742435,0.395989 z m -2.483284,-2.03748 c -0.373865,-0.390229 -0.732967,-0.709503 -0.798006,-0.709503 -0.06503,0 0.187636,0.319274 0.561502,0.709503 0.373865,0.390229 0.732966,0.709513 0.798005,0.709513 0.06503,0 -0.187636,-0.319284 -0.561501,-0.709513 z M 117.77871,81.23898 c 0.16193,-0.195114 0.2412,-0.354751 0.17617,-0.354751 -0.0651,0 -0.25075,0.159637 -0.41268,0.354751 -0.16193,0.195115 -0.2412,0.354752 -0.17617,0.354752 0.0651,0 0.25075,-0.159637 0.41268,-0.354752 z m 2.03492,-4.547769 c -0.0786,-0.07861 -0.13449,0.06112 -0.12423,0.31041 0.0113,0.275519 0.0674,0.331562 0.14289,0.14289 0.0684,-0.17073 0.06,-0.374708 -0.0187,-0.4533 h -2e-5 z m 0.2365,-0.946015 c -0.0786,-0.07861 -0.13449,0.06112 -0.12423,0.31041 0.0113,0.27552 0.0674,0.331562 0.14289,0.142891 0.0683,-0.17072 0.0599,-0.374709 -0.0187,-0.453301 z m 0.70951,-3.311046 c -0.0786,-0.07861 -0.13449,0.06112 -0.12422,0.31041 0.0113,0.27552 0.0674,0.331562 0.14289,0.142891 0.0683,-0.170731 0.0599,-0.374709 -0.0187,-0.453301 h -10e-6 z m 0.2365,-1.182516 c -0.0786,-0.07861 -0.13448,0.06112 -0.12422,0.31041 0.0113,0.27552 0.0674,0.331552 0.14289,0.142891 0.0684,-0.170731 0.0599,-0.374709 -0.0187,-0.453301 h -1e-5 z M 76.390603,49.103473 c 0,-0.04907 -0.186248,-0.23536 -0.41388,-0.413877 -0.375108,-0.294186 -0.383475,-0.285823 -0.08929,0.08928 0.308959,0.393952 0.503173,0.519242 0.503173,0.324586 z M 135.03621,14.072002 c 0,-0.130069 -0.10315,-0.0768 -0.22926,0.118261 -0.12609,0.195114 -0.22926,0.461183 -0.22926,0.591252 0,0.13008 0.10315,0.07691 0.22926,-0.11825 0.1261,-0.195114 0.22926,-0.461183 0.22926,-0.591263 z M 110.11698,13.0718 c -0.0786,-0.07861 -0.13449,0.06112 -0.12422,0.3104 0.0113,0.27552 0.0674,0.331562 0.14289,0.142891 0.0683,-0.17072 0.06,-0.374709 -0.0187,-0.453291 z m 23.50745,-2.991387 c 0,-0.04917 -0.18624,-0.23536 -0.41387,-0.4138878 -0.37512,-0.2941756 -0.38348,-0.2858129 -0.0893,0.08928 0.30896,0.3939618 0.50317,0.5192418 0.50317,0.3245968 z M 111.39311,9.2236885 c 0.27787,-0.3902288 0.452,-0.7095137 0.38697,-0.7095137 -0.0651,0 -0.3456,0.3192849 -0.62347,0.7095137 -0.27787,0.3902288 -0.45201,0.7095137 -0.38696,0.7095137 0.0651,0 0.3456,-0.3192849 0.62346,-0.7095137 z m 20.81231,-0.1121812 c 0,-0.061653 -0.31929,-0.2772796 -0.70952,-0.479082 -0.88946,-0.4599567 -0.94327,-0.2601809 -0.0591,0.2194877 0.74322,0.4031995 0.76864,0.4117861 0.76864,0.2595943 z m -19.62979,-0.952084 c 0.16193,-0.1951144 0.24121,-0.3547622 0.17617,-0.3547622 -0.0651,0 -0.25074,0.1596478 -0.41267,0.3547622 -0.16193,0.1951144 -0.24122,0.3547515 -0.17617,0.3547515 0.0651,0 0.25074,-0.1596371 0.41267,-0.3547515 z m 17.73776,-0.1182505 c -0.19512,-0.1261011 -0.46119,-0.2292583 -0.59126,-0.2292583 -0.13008,0 -0.0769,0.1031465 0.11825,0.2292583 0.19512,0.1260905 0.46118,0.2292584 0.59126,0.2292584 0.13008,0 0.0769,-0.1031466 -0.11825,-0.2292584 z M 115.91367,6.6704227 c -0.5705,-0.0432 -1.1241,0.00853 -1.23021,0.1139412 -0.10614,0.1059198 0.36065,0.1412691 1.03726,0.078613 l 1.23022,-0.1139305 z m 11.36951,0.2631783 c -0.17072,-0.068267 -0.37471,-0.059947 -0.4533,0.018667 -0.0786,0.078613 0.0611,0.1344851 0.31042,0.1242238 0.27551,-0.011307 0.33155,-0.067413 0.14288,-0.1428908 z m -1.41901,-0.2365117 c -0.17073,-0.068267 -0.37471,-0.059946 -0.4533,0.018667 -0.0786,0.078613 0.0611,0.1344851 0.31041,0.1242132 0.27552,-0.011307 0.33155,-0.067413 0.14289,-0.1428802 z"
     id="path3378"
     inkscape:connector-curvature="0" />
  <path
     style="fill:#aa8800;fill-opacity:1;stroke-width:0.31775832"
     d="M 22.497142,91.843435 C 22.214938,91.767915 21.684231,90.028941 20.430471,85.071402 10.149029,44.417154 4.2034498,21.181421 3.8327847,20.2065 3.6272111,19.665797 3.5025545,19.629839 1.8339071,19.629839 H 0.05427948 V 9.814941 5.3333259e-5 H 22.758606 45.462935 V 9.5787173 19.157371 l -3.224296,-0.01611 c -1.987795,-0.0096 -3.320928,0.08053 -3.476276,0.235904 -0.178304,0.178303 -0.16852,1.099166 0.03346,3.149467 0.156992,1.59363 0.287903,3.642481 0.290915,4.553018 0.0055,1.669576 0.415964,4.250298 1.504573,9.460136 0.459656,2.199848 2.77716,16.533406 3.625422,22.422956 0.07138,0.495626 0.20864,0.8149 0.305013,0.709503 0.09637,-0.105387 0.466997,-1.468745 0.823601,-3.02966 0.717355,-3.139985 1.150209,-4.15416 2.401893,-5.627619 0.673283,-0.792564 0.623186,-0.761748 -0.246745,0.151797 -0.60035,0.630442 -1.091547,1.012927 -1.091547,0.849951 0,-0.367946 8.747183,-43.2592145 9.805366,-48.0799971 C 56.65294,1.938472 57.127207,0.3338022 57.314166,0.21541303 57.494948,0.10092786 58.554129,0.00563199 59.6679,0.00363733 L 61.692936,4.3733272e-4 63.051413,5.7356507 c 0.747164,3.1543636 1.93579,7.9701653 2.641388,10.7017773 2.028645,7.853536 5.923349,23.601194 6.638836,26.843141 l 0.652446,2.956284 -0.642704,2.483293 c -0.353487,1.3658 -1.217605,4.558596 -1.920264,7.095104 -0.702656,2.536498 -2.934537,10.944188 -4.959734,18.683761 -2.025197,7.739584 -3.877437,14.763734 -4.116085,15.609226 l -0.433909,1.537278 -10.030133,0.143861 c -11.776069,0.168896 -27.841071,0.199712 -28.38411,0.0544 z M 62.247431,13.362499 c 0,-0.13008 -0.103168,-0.07691 -0.229259,0.11825 -0.126093,0.195115 -0.229256,0.461184 -0.229256,0.591253 0,0.13008 0.103167,0.07691 0.229256,-0.118251 0.126096,-0.195114 0.229259,-0.461172 0.229259,-0.591252 z"
     id="path3380"
     inkscape:connector-curvature="0" />
  <path
     style="fill:#aa8800;fill-opacity:1;stroke-width:0.31775832"
     d="M 22.355288,91.833291 C 22.1985,91.721632 18.761093,78.59636 14.716601,62.666025 5.0377148,24.543091 3.8580402,20.025615 3.526631,19.814863 3.3728741,19.71705 2.5286953,19.63545 1.6506781,19.633455 l -1.59639862,-0.0032 V 9.815357 4.6933268e-4 H 22.758606 45.462935 V 9.578856 19.157253 l -3.133671,0.0032 c -1.723519,0.0021 -3.281074,0.09696 -3.46124,0.211072 -0.273708,0.173344 -0.284721,0.707455 -0.06699,3.248305 0.143318,1.672467 0.319306,3.989669 0.391081,5.149347 0.07178,1.159668 0.553952,4.246042 1.071504,6.858593 0.517551,2.612562 1.636346,9.22002 2.486208,14.683244 0.849857,5.463235 1.582734,10.03957 1.628613,10.16965 0.04588,0.13008 0.145939,0.07691 0.222366,-0.118251 0.110571,-0.282282 1.239087,-4.75963 1.609275,-6.384737 0.04434,-0.194645 0.240254,-0.49521 0.43537,-0.667925 0.195117,-0.172704 0.221722,-0.246634 0.05913,-0.164266 -0.169422,0.08587 -0.295629,0.0032 -0.295629,-0.193152 0,-0.373226 8.177558,-40.573959 9.580184,-47.0960091 C 56.463327,2.6513776 56.95333,0.65669242 57.078028,0.42369008 57.270838,0.06342391 57.630753,2.2399969e-4 59.484085,0.001184 L 61.66342,0.00225066 67.040266,21.582061 c 2.957262,11.86889 5.500771,22.32479 5.652243,23.235327 0.269952,1.622761 0.254054,1.735102 -0.803254,5.676088 -2.306329,8.596564 -4.29888,16.096757 -7.508309,28.262158 -1.835922,6.959116 -3.412051,12.728207 -3.502503,12.820196 -0.240149,0.244245 -38.185619,0.497791 -38.523151,0.257397 z"
     id="path3382"
     inkscape:connector-curvature="0" />
  <path
     style="fill:#aa8800;fill-opacity:1;stroke-width:0.31775832"
     d="M 86.60346,91.362113 C 86.016179,91.270593 85.925262,90.971511 82.965346,79.395004 67.226285,17.838055 62.864385,0.49405798 63.070441,0.28785027 63.297172,0.06095992 86.52525,0.0690239 86.752625,0.29638359 86.942539,0.48603666 88.36908,5.7087174 93.842287,26.252241 c 5.665815,21.266488 9.018803,33.26149 9.236743,33.043549 0.15263,-0.15263 1.29223,-6.064259 1.28646,-6.67341 -0.003,-0.26016 0.89371,-6.965025 1.99151,-14.899712 2.37872,-17.192883 2.47936,-17.944349 2.41217,-18.011538 -0.0287,-0.02869 -1.67284,-0.127701 -3.65359,-0.219936 l -3.60134,-0.167701 V 9.6619279 3.6266616e-4 h 19.12947 19.12947 L 139.94498,7.6276054 c 0.0945,4.1949706 0.0802,8.5835506 -0.0318,9.7523916 l -0.20361,2.12516 -0.91153,0.14752 c -0.50134,0.08117 -0.9942,0.281311 -1.09525,0.44482 -0.10102,0.163509 -0.35957,1.162911 -0.57447,2.220883 -0.79706,3.924111 -13.38274,68.828853 -13.38274,69.015253 0,0.188288 -35.940153,0.216149 -37.142108,0.0288 z M 115.76358,6.7020173 c -0.1626,-0.0656 -0.42867,-0.0656 -0.59126,0 -0.16259,0.0656 -0.0296,0.1192959 0.29564,0.1192959 0.32518,0 0.45821,-0.053653 0.29562,-0.1192959 z"
     id="path3384"
     inkscape:connector-curvature="0" />
  <path
     style="fill:#aa8800;fill-opacity:1;stroke-width:0.31775832"
     d="m 285.93379,82.184995 v -9.814898 h 2.15383 c 1.9591,0 2.13829,0.03744 1.98185,0.413887 -0.71384,1.717886 -0.89411,2.840039 -1.00018,6.226637 -0.11496,3.670021 -0.11283,3.689477 0.55281,5.04891 1.00259,2.047539 2.24376,3.313766 4.19089,4.275503 2.39462,1.182793 3.85745,1.51522 7.37526,1.676019 4.67766,0.213824 18.29718,-0.290783 22.58606,-0.836809 2.01621,-0.256693 4.0117,-0.470911 4.43445,-0.476053 l 0.76862,-0.0096 v 1.655518 1.655528 h -21.5218 -21.52179 V 82.18475 Z"
     id="path3386"
     inkscape:connector-curvature="0" />
  <path
     style="fill:#aa8800;fill-opacity:1;stroke-width:0.31775832"
     d="m 290.71541,48.010248 c -0.003,-24.036692 -0.0425,-23.435477 1.04546,-15.490976 0.36208,2.643986 0.41852,4.829924 0.40295,15.609226 -0.0185,12.843428 -0.17267,15.882794 -1.0195,20.102788 -0.42391,2.112381 -0.42716,1.958931 -0.42891,-20.221038 z"
     id="path3388"
     inkscape:connector-curvature="0" />
  <path
     style="fill:#aa8800;fill-opacity:1;stroke-width:0.31775832"
     d="m 285.74357,8.2776738 c -0.0241,-1.6259604 0.0248,-4.1535942 0.10915,-5.6169522 L 286.00604,5.3333259e-5 h 21.48568 21.48566 V 1.6555817 c 0,1.1674224 -0.0872,1.6551444 -0.29561,1.6542484 -0.1626,-6.4e-4 -2.90308,-0.2709117 -6.08996,-0.6004685 -11.12665,-1.1506011 -19.68163,-1.1522011 -30.60034,-0.00533 -3.10707,0.3262503 -5.71453,0.6581645 -5.79432,0.7376097 -0.0798,0.079467 -0.20458,1.865288 -0.27725,3.9685705 l -0.13216,3.8241432 -0.0442,-2.9562831 z"
     id="path3390"
     inkscape:connector-curvature="0" />
  <path
     style="fill:#aa8800;fill-opacity:1;stroke-width:0.31775832"
     d="m 246.6151,19.454042 -1.83292,-0.08064 V 9.6867172 2.1333304e-5 h 19.39329 19.39328 V 1.6881043 3.376198 l -1.24164,-0.1453332 c -8.51177,-0.9962759 -11.2517,-1.1797637 -17.91513,-1.199689 -4.88708,-0.014613 -7.35969,0.069227 -8.25497,0.280085 -3.25915,0.7674229 -6.0132,2.8258094 -7.25577,5.4230324 -1.43518,2.9998038 -0.79496,8.7692788 1.24168,11.1896908 l 0.59389,0.705823 -1.14441,-0.04757 c -0.62941,-0.02613 -1.9692,-0.08384 -2.9773,-0.128202 z"
     id="path3392"
     inkscape:connector-curvature="0" />
  <path
     style="fill:#aa8800;fill-opacity:1;stroke-width:0.31775832"
     d="m 239.38282,36.74796 c -1.74023,-4.0812 -2.16907,-5.406564 -4.19554,-12.96586 -2.17357,-8.108063 -2.91023,-10.339644 -4.23931,-12.842169 -2.00312,-3.7716956 -4.12464,-5.9857086 -7.05224,-7.3596586 -2.36011,-1.1076252 -3.69848,-1.3366275 -7.61221,-1.3025156 -4.83009,0.042133 -8.40215,0.8427829 -8.82188,1.9774373 -0.1381,0.3733115 -0.30984,-0.031893 -0.71147,-1.678739 -0.29119,-1.193961 -0.46459,-2.23548491 -0.38534,-2.3144928 0.17189,-0.17134909 23.66259,-0.19639439 23.83268,-0.0253866 0.19488,0.19586106 10.60224,39.0281053 10.52105,39.2563503 -0.0413,0.116224 -0.64245,-1.118995 -1.33574,-2.744956 z"
     id="path3394"
     inkscape:connector-curvature="0" />
  <path
     style="fill:#aa8800;fill-opacity:1;stroke-width:0.31775832"
     d="m 230.54572,91.356097 c -0.83822,-0.08896 -0.89017,-0.147915 -1.26789,-1.439123 -0.82461,-2.819143 -4.20807,-15.832704 -5.91484,-22.749953 -0.97893,-3.967344 -2.19823,-8.756532 -2.70957,-10.642652 -1.5763,-5.814328 -5.02373,-19.25753 -9.21874,-35.948515 C 209.2279,11.795664 207.26662,4.1743835 207.07627,3.6396856 206.88592,3.104977 206.65748,2.1195384 206.56864,1.449822 l -0.16152,-1.21767299 11.91504,0.0613333 11.91508,0.0613333 0.53793,1.89202939 c 1.1329,3.9845491 7.88374,29.274732 8.80677,32.992231 0.5329,2.146269 1.22476,4.753711 1.53744,5.794328 0.31267,1.040617 1.58704,5.561454 2.83193,10.046322 1.24484,4.484858 2.35328,8.244181 2.46316,8.354058 0.28837,0.288384 0.35169,-0.05771 1.67904,-9.176745 1.25632,-8.631444 1.68291,-10.906555 2.6969,-14.384417 0.77555,-2.659858 1.0242,-4.981156 1.19884,-11.191803 l 0.14064,-5.00042 -3.67385,-0.172181 -3.67386,-0.17217 V 9.6680505 6.3999911e-5 h 19.39329 19.39328 V 9.8025997 19.605125 l -1.22306,0.07147 c -1.0717,0.06261 -1.24463,0.144651 -1.39747,0.662741 -0.39431,1.336542 -1.24107,5.146371 -1.33058,5.986658 -0.0801,0.751444 -4.42888,23.434218 -11.11757,57.987525 l -1.37344,7.095094 -17.85345,0.02016 c -9.81939,0.01109 -18.24676,-0.02165 -18.72746,-0.07264 v 0 z"
     id="path3396"
     inkscape:connector-curvature="0" />
  <path
     style="fill:#aa8800;fill-opacity:1;stroke-width:0.31775832"
     d="m 344.23187,89.968355 c -0.52033,-0.04949 -3.63327,-0.381205 -6.91772,-0.737151 l -5.97173,-0.647157 v -8.106975 -8.106975 h 2.36505 2.36504 l 0.003,-2.897159 c 0,-2.22132 0.12091,-3.338545 0.51223,-4.789199 0.49417,-1.831869 0.51327,-2.397052 0.60103,-17.776167 l 0.0907,-15.884127 -0.60289,-2.915228 c -0.44676,-2.160306 -0.60288,-3.635515 -0.60288,-5.696803 v -2.781575 h -2.36504 -2.36505 v -8.15937 c 0,-7.6122877 0.0276,-8.1595189 0.41388,-8.1616416 0.22764,-0.00107 1.85065,-0.1638398 3.60668,-0.3613008 8.97229,-1.0089053 9.95512,-1.0712519 16.79604,-1.0654919 9.0339,0.00747 11.28427,0.218773 13.56962,1.2732889 3.77515,1.7419389 5.58349,4.8480786 5.58256,9.5890744 -2.6e-4,1.501598 -0.97828,6.22621 -1.39747,6.751127 -0.11092,0.138912 -0.25204,0.625055 -0.31356,1.080329 -0.0615,0.455263 -0.34235,1.82067 -0.62405,3.034225 -0.78539,3.383601 -0.91606,6.347917 -0.95066,21.565943 -0.0352,15.503542 0.15948,19.895994 1.04647,23.606336 0.32123,1.343699 0.58404,2.700636 0.58404,3.015419 0,0.314773 0.0868,0.57232 0.19294,0.57232 0.10613,0 0.49485,1.219667 0.86392,2.710375 0.60028,2.424647 0.65608,2.974225 0.52926,5.21324 -0.11064,1.954163 -0.2705,2.784156 -0.72913,3.785926 -1.16903,2.553511 -3.73168,4.57706 -6.90708,5.454029 -1.14999,0.317611 -2.91892,0.398901 -9.91387,0.455626 -4.68277,0.03797 -8.93984,0.02859 -9.46014,-0.02091 v 0 z"
     id="path3398"
     inkscape:connector-curvature="0" />
  <path
     style="fill:#aa8800;fill-opacity:1;stroke-width:0.31775832"
     d="m 331.34242,90.344365 c 0,-1.571038 0.0279,-1.655528 0.54534,-1.655528 0.29994,0 2.98719,0.288671 5.9717,0.641492 5.11158,0.604287 5.95961,0.638996 14.61741,0.598346 5.0551,-0.02368 9.75614,-0.147616 10.44679,-0.275296 2.91921,-0.539647 6.2892,-2.936348 7.41228,-5.271587 1.12795,-2.345277 1.23891,-5.806925 0.30349,-9.469278 l -0.64933,-2.542417 h 2.19796 2.198 v 9.814898 9.814888 h -21.52184 -21.5218 z"
     id="path3400"
     inkscape:connector-curvature="0" />
  <path
     style="fill:#aa8800;fill-opacity:1;stroke-width:0.31775832"
     d="m 370.24367,18.74295 c 1.32931,-5.209817 1.32553,-8.477023 -0.013,-11.306683 -0.72532,-1.5331819 -2.78705,-3.5061391 -4.41738,-4.2271408 -2.50895,-1.1095771 -3.47958,-1.196745 -13.30368,-1.1947183 -8.49025,0.00213 -9.68334,0.053547 -15.00528,0.6513591 -3.71193,0.4169594 -5.84841,0.7545482 -5.96811,0.943028 -0.10251,0.1614611 -0.18804,-0.5844579 -0.19005,-1.657587 l -0.003,-1.951154666741 h 21.52181 21.52183 V 9.6966905 19.393338 h -2.15418 -2.15417 l 0.16596,-0.650388 z"
     id="path3402"
     inkscape:connector-curvature="0" />
  <path
     style="fill:#aa8800;fill-opacity:1;stroke-width:0.31775832"
     d="m 368.98105,68.290422 c -0.72865,-3.745456 -0.97151,-9.227155 -0.97182,-21.935692 -3.2e-4,-13.47117 0.25925,-19.216954 1.03642,-22.940843 l 0.56765,-2.719782 0.0213,25.128487 c 0.0117,13.820664 -0.014,25.128488 -0.0573,25.128488 -0.0433,0 -0.31159,-1.1973 -0.59627,-2.660658 z"
     id="path3404"
     inkscape:connector-curvature="0" />
  <path
     style="fill:#aa8800;fill-opacity:1;stroke-width:0.31775832"
     d="m 331.34776,82.184995 -0.0107,-9.814898 h 2.36764 2.36766 v -2.474898 c 0,-1.541203 0.18232,-3.392614 0.48327,-4.907439 0.44724,-2.251079 0.49377,-3.605893 0.62354,-18.160028 0.13924,-15.615423 0.13648,-15.745173 -0.38519,-18.210769 -0.31766,-1.501342 -0.5773,-3.769158 -0.65661,-5.735203 l -0.13118,-3.251921 h -2.33516 -2.33518 l 0.0143,-9.814898 0.0146,-9.814887666741 h 21.51055 21.51055 V 9.6881252 19.376208 l -2.30591,0.06773 -2.30591,0.06773 -0.11826,25.660615 c -0.065,14.113346 -0.0849,26.006513 -0.0442,26.429265 l 0.0741,0.768628 h 2.35008 2.35004 v 9.814898 9.814888 H 352.8719 331.35804 l -0.0107,-9.814888 z m 37.0321,-54.213482 c -0.0786,-0.07861 -0.13448,0.06112 -0.12421,0.31041 0.0114,0.275509 0.0674,0.331552 0.14286,0.142891 0.0683,-0.170731 0.0599,-0.37472 -0.0188,-0.453301 v 0 z"
     id="path3406"
     inkscape:connector-curvature="0" />
  <path
     style="fill:#806600;fill-opacity:1;stroke-width:0.31775832"
     d="m 336.13575,45.881717 c 0.004,-11.641882 0.0498,-20.847778 0.10133,-20.45755 0.0515,0.39024 0.31384,1.933416 0.58289,3.429308 0.47336,2.631591 0.48398,3.206768 0.32733,17.737756 -0.15002,13.917346 -0.23819,16.011903 -0.81143,19.275024 -0.12631,0.71906 -0.20476,-7.113323 -0.20012,-19.984538 z"
     id="path3408"
     inkscape:connector-curvature="0" />
  <path
     style="fill:#806600;fill-opacity:1;stroke-width:0.31775832"
     d="m 331.34242,82.184995 v -9.814898 h 2.36505 2.36504 l 0.009,-2.660658 c 0.004,-1.497022 0.1638,-3.332998 0.36387,-4.197935 0.44943,-1.943048 0.77793,-12.283066 0.79665,-25.075336 0.013,-8.947518 -0.0117,-9.492232 -0.57756,-12.718607 -0.3658,-2.085458 -0.59125,-4.270031 -0.59125,-5.729229 v -2.358493 h -2.36504 -2.36506 V 9.814941 5.3333259e-5 h 21.52181 21.52184 V 9.6966905 19.393338 h -2.22148 c -1.80754,0 -2.24824,0.06976 -2.36505,0.37409 -0.0789,0.20576 -0.14356,12.12553 -0.14356,26.48839 v 26.114279 h 2.36504 2.36505 v 9.814898 9.814888 h -21.52212 -21.5218 v -9.814888 z"
     id="path3410"
     inkscape:connector-curvature="0" />
  <path
     style="fill:#806600;fill-opacity:1;stroke-width:0.31775832"
     d="m 285.93379,82.170755 v -9.829128 l 2.17007,0.04768 c 2.08045,0.04576 2.17851,0.02485 2.37514,-0.50673 0.16104,-0.435338 0.28036,-29.994347 0.19831,-49.119089 l -0.0133,-3.13367 h -2.33238 -2.33241 l -0.11102,-7.03598 c -0.0611,-3.8697861 -0.0624,-8.286484 -0.003,-9.8148872 L 285.99313,3.1999955e-5 h 21.48412 21.48411 l 0.0107,9.814887700045 0.0107,9.8148983 h -2.33251 -2.3325 l -0.13756,2.660658 c -0.0756,1.463368 -0.34927,3.778149 -0.60806,5.14395 -0.43117,2.275474 -0.48115,3.822875 -0.59738,18.491078 l -0.12682,16.007786 0.57883,2.28181 c 0.36672,1.445651 0.63634,3.357905 0.73579,5.218393 l 0.15702,2.936582 h 2.32897 2.32901 v 9.814899 9.814887 h -21.52182 -21.52181 v -9.829127 0 z m 6.32523,-37.188503 c -0.0425,-1.261331 -0.077,-0.1648 -0.0768,2.436743 2.2e-4,2.601533 0.0349,3.633531 0.0771,2.29332 0.0422,-1.340201 0.042,-3.468731 0,-4.730063 z"
     id="path3412"
     inkscape:connector-curvature="0" />
  <path
     style="fill:#806600;fill-opacity:1;stroke-width:0.31775832"
     d="m 324.01081,67.137176 c 0,-0.406645 -0.22398,-1.69348 -0.49776,-2.859633 -0.48706,-2.074536 -0.49536,-2.473032 -0.38556,-18.47654 0.093,-13.569901 0.176,-16.698739 0.4868,-18.366556 0.20603,-1.105652 0.41572,-2.38277 0.46596,-2.838033 0.0502,-0.455274 0.10842,9.09651 0.12923,21.226178 0.0207,12.129669 -0.0152,22.053943 -0.0804,22.053943 -0.0651,0 -0.11827,-0.332714 -0.11827,-0.739359 z"
     id="path3414"
     inkscape:connector-curvature="0" />
  <path
     style="fill:#806600;fill-opacity:1;stroke-width:0.31775832"
     d="m 322.89926,48.6015 c -0.005,-4.552687 0.0661,-9.075816 0.15822,-10.051388 0.22462,-2.380765 0.24283,11.220123 0.0204,15.254474 -0.12548,2.276424 -0.17184,0.925749 -0.1786,-5.203086 z"
     id="path3416"
     inkscape:connector-curvature="0" />
  <path
     style="fill:#806600;fill-opacity:1;stroke-width:0.31775832"
     d="m 285.93379,82.184995 v -9.814898 h 2.21722 2.21722 l 0.14782,-0.739071 c 0.0813,-0.406485 0.14779,-12.27305 0.14779,-26.370129 V 19.629839 h -2.36501 -2.36504 V 9.814941 5.3333259e-5 h 21.52179 21.5218 V 9.814941 19.629839 h -2.31964 -2.31963 l -0.22278,3.01542 c -0.12266,1.660254 -0.15666,6.78862 -0.0757,11.411291 0.20249,11.557968 0.20461,27.845743 0.004,30.265441 -0.0913,1.101801 -0.065,3.363365 0.0587,5.025699 l 0.22481,3.022407 h 2.32513 2.3251 v 9.814898 9.814888 h -21.5218 -21.52179 v -9.814888 z m 37.5104,-18.501468 c -0.0786,-0.07861 -0.13447,0.06112 -0.12421,0.310411 0.0114,0.275509 0.0674,0.331551 0.1429,0.14289 0.0684,-0.17073 0.0599,-0.374719 -0.0188,-0.453301 h -3e-5 z m -0.3636,-5.148878 -0.1777,-4.730063 -0.0373,4.050118 c -0.0322,3.499099 0.0999,5.710914 0.32715,5.477357 0.0361,-0.03701 -0.0146,-2.195869 -0.11216,-4.797412 z M 292.25515,46.413855 c -0.051,-0.487796 -0.0928,-0.08864 -0.0928,0.886879 0,0.975583 0.0417,1.374676 0.0928,0.88689 0.051,-0.487786 0.051,-1.285983 0,-1.773769 z m 31.0974,-12.830318 c 0.0485,-3.056806 0.014,-4.972483 -0.0764,-4.25706 -0.16326,1.290536 -0.24845,10.505009 -0.0929,10.051399 0.0446,-0.13008 0.12078,-2.737532 0.1693,-5.794339 z m 0.32815,-6.79454 c -0.0786,-0.07861 -0.13447,0.06112 -0.12421,0.310411 0.0114,0.275509 0.0674,0.331551 0.14289,0.142879 0.0684,-0.170719 0.0599,-0.374708 -0.0188,-0.45329 v 0 z"
     id="path3418"
     inkscape:connector-curvature="0" />
  <path
     style="fill:#806600;fill-opacity:1;stroke-width:0.31775832"
     d="m 285.93379,82.184995 v -9.814898 h 2.21583 2.21584 l 0.14658,-0.88689 c 0.0806,-0.487786 0.14777,-12.35434 0.1492,-26.370128 l 0.003,-25.48324 h -2.36502 -2.36504 V 9.814941 5.3333259e-5 h 21.5218 21.52179 V 9.814941 19.629839 h -2.32945 -2.32948 l -0.13327,2.542407 c -0.0733,1.398324 -0.0917,12.546511 -0.0409,24.773737 0.0509,12.227225 0.0948,22.949706 0.0977,23.827721 l 0.005,1.596393 h 2.36505 2.36501 v 9.814898 9.814888 h -21.5218 -21.5218 v -9.814888 z m 37.12502,-22.822582 -0.14588,-3.665808 -0.0423,2.985863 c -0.0347,2.44806 0.11751,4.722233 0.29536,4.413082 0.0213,-0.03701 -0.027,-1.716947 -0.10715,-3.733137 z m 0.1818,-26.429253 c -0.0444,-1.008095 -0.0806,-0.183296 -0.0806,1.832893 0,2.016189 0.0363,2.840999 0.0806,1.832904 0.0444,-1.008095 0.0444,-2.657703 0,-3.665797 z"
     id="path3420"
     inkscape:connector-curvature="0" />
  <path
     style="fill:#806600;fill-opacity:1;stroke-width:0.31775832"
     d="m 285.93379,82.19387 v -9.806024 l 2.18763,-0.06795 2.18768,-0.06805 0.15983,-1.064265 c 0.0879,-0.585343 0.16774,-12.425295 0.17741,-26.311003 l 0.0175,-25.246739 h -2.36501 -2.36504 V 9.814941 5.3333259e-5 h 21.52179 21.5218 V 9.814941 19.629839 h -2.33483 -2.33482 l -0.15316,4.197936 c -0.0843,2.308861 -0.10592,4.410788 -0.0483,4.670937 0.0577,0.26016 0.113,10.23765 0.12297,22.172204 l 0.0181,21.699181 h 2.36504 2.36501 v 9.814898 9.814888 h -21.5218 -21.52179 z m 37.0677,-23.363595 c -0.0498,-0.55282 -0.0906,-0.100479 -0.0906,1.00514 0,1.105652 0.0408,1.557972 0.0906,1.00514 0.0498,-0.55282 0.0498,-1.457448 0,-2.01028 z"
     id="path3422"
     inkscape:connector-curvature="0" />
  <path
     style="fill:#806600;fill-opacity:1;stroke-width:0.31775832"
     d="m 285.93379,82.19387 v -9.806024 l 2.18763,-0.06795 2.18768,-0.06805 0.1496,-2.365031 c 0.0822,-1.300766 0.16208,-13.140718 0.17736,-26.311004 l 0.0276,-23.945972 h -2.36501 -2.36504 V 9.814941 5.3333259e-5 h 21.5218 21.52179 V 9.814941 19.629839 h -2.36501 -2.36504 v 26.370129 26.370129 h 2.36504 2.36501 v 9.814898 9.814888 h -21.52179 -21.5218 V 82.19387 Z"
     id="path3424"
     inkscape:connector-curvature="0" />
  <path
     style="fill:#806600;fill-opacity:1;stroke-width:0.31775832"
     d="m 285.93379,82.19387 v -9.806024 l 2.18763,-0.06795 2.18768,-0.06805 0.13167,-3.665797 c 0.0724,-2.01619 0.15329,-13.856152 0.1797,-26.311014 l 0.048,-22.645196 h -2.36734 -2.36732 V 9.814941 5.3333259e-5 h 21.52179 21.5218 V 9.814941 19.629839 h -2.36501 -2.36504 v 26.370129 26.370129 h 2.36504 2.36501 v 9.814898 9.814888 h -21.5218 -21.52179 z"
     id="path3426"
     inkscape:connector-curvature="0" />
  <path
     style="fill:#806600;fill-opacity:1;stroke-width:0.31775832"
     d="m 331.34242,82.184995 v -9.814898 h 2.32825 2.32824 l 0.15686,-3.370172 c 0.20352,-4.373754 0.20361,-41.834277 9e-5,-46.097546 l -0.15621,-3.27254 h -2.32859 -2.32864 V 9.814941 5.3333259e-5 h 21.5218 21.52184 V 9.6966905 19.393338 h -2.22148 c -1.80754,0 -2.24823,0.06976 -2.36504,0.37409 -0.0789,0.20576 -0.14356,12.12553 -0.14356,26.48839 v 26.114279 h 2.36504 2.36504 v 9.814898 9.814888 h -21.52184 -21.5218 z m 5.34596,-18.737969 c -0.0786,-0.07861 -0.13447,0.06112 -0.1242,0.310411 0.0114,0.275509 0.0674,0.331551 0.14289,0.14289 0.0683,-0.17073 0.0598,-0.374719 -0.0188,-0.453301 z m 0.50623,-17.979185 c -0.0434,-1.138175 -0.0788,-0.206944 -0.0788,2.069405 0,2.276338 0.0354,3.207579 0.0788,2.069394 0.0433,-1.138163 0.0433,-3.000636 0,-4.138799 z"
     id="path3428"
     inkscape:connector-curvature="0" />
  <path
     style="fill:#806600;fill-opacity:1;stroke-width:0.31775832"
     d="m 331.34242,82.184995 v -9.814898 h 2.3278 2.32784 l 0.15475,-4.079675 c 0.20079,-5.293507 0.20089,-40.094952 1.3e-4,-44.93566 l -0.1545,-3.724923 h -2.32799 -2.32803 V 9.814941 5.3333259e-5 h 21.5218 21.52184 V 9.6966905 19.393338 h -2.12021 c -1.85415,0 -2.15094,0.05739 -2.36504,0.457461 -0.1645,0.307381 -0.24483,8.996873 -0.24483,26.488379 v 26.030919 h 2.36504 2.36504 v 9.814898 9.814888 h -21.52184 -21.5218 z"
     id="path3430"
     inkscape:connector-curvature="0" />
  <path
     style="fill:#806600;fill-opacity:1;stroke-width:0.31775832"
     d="m 331.34242,82.184995 v -9.814898 h 2.33835 2.33833 l 0.16161,-5.971704 c 0.11938,-4.410949 0.0398,-46.319296 -0.0888,-46.709428 -0.0108,-0.03253 -1.08372,-0.05909 -2.38449,-0.05909 h -2.36505 V 9.814973 8.5333215e-5 h 21.5218 21.52184 V 9.6967225 19.39337 l -1.95116,0.0032 c -1.07313,0.0021 -2.11081,0.104534 -2.30591,0.227829 -0.31121,0.196693 -0.36275,3.447068 -0.41985,26.484764 l -0.0651,26.26055 h 2.37099 2.37101 v 9.814898 9.814888 h -21.52184 -21.5218 z"
     id="path3432"
     inkscape:connector-curvature="0" />
  <path
     style="fill:#806600;fill-opacity:1;stroke-width:0.31775832"
     d="m 331.34242,82.184995 v -9.814898 h 2.36505 2.36504 V 45.999968 19.629839 h -2.36504 -2.36505 V 9.814941 5.3333259e-5 h 21.5218 21.52184 V 9.6731599 19.346266 l -2.10912,0.08267 c -1.16001,0.04544 -2.19768,0.171306 -2.30591,0.279658 -0.10823,0.108352 -0.23183,12.00152 -0.27467,26.429254 l -0.0779,26.232252 h 2.38382 2.38379 v 9.814898 9.814888 h -21.52183 -21.52181 z"
     id="path3434"
     inkscape:connector-curvature="0" />
  <path
     style="fill:#806600;fill-opacity:1;stroke-width:0.31775832"
     d="m 285.93379,82.19387 v -9.806024 l 2.18763,-0.06795 2.18768,-0.06805 0.1453,-6.622092 c 0.0799,-3.64216 0.15975,-15.482101 0.17738,-26.311003 l 0.0321,-19.688912 h -2.36501 -2.36504 V 9.814941 5.3333259e-5 h 21.5218 21.52179 V 9.814941 19.629839 h -2.36501 -2.36504 v 26.370129 26.370129 h 2.36504 2.36501 v 9.814898 9.814888 h -21.52179 -21.5218 z"
     id="path3436"
     inkscape:connector-curvature="0" />
  <path
     style="fill:#806600;fill-opacity:1;stroke-width:0.31775832"
     d="m 285.93379,82.19387 v -9.806024 l 2.18763,-0.06795 2.18768,-0.06805 0.14403,-8.987134 c 0.0792,-4.942916 0.15901,-16.782867 0.17738,-26.311003 l 0.0333,-17.32387 h -2.36501 -2.36504 V 9.814941 5.3333259e-5 h 21.52179 21.52179 V 9.814941 19.629839 h -2.36501 -2.36504 v 26.370129 26.370129 h 2.36504 2.36501 v 9.814898 9.814888 h -21.52179 -21.52179 z"
     id="path3438"
     inkscape:connector-curvature="0" />
  <path
     style="fill:#806600;fill-opacity:1;stroke-width:0.31775832"
     d="m 230.06018,91.287596 c -0.34461,-0.138795 -0.60911,-0.552074 -0.78502,-1.226655 -0.14591,-0.55954 -0.46307,-1.709128 -0.70485,-2.55462 -0.70622,-2.469949 -3.86086,-14.694198 -5.64552,-21.876567 -0.905,-3.64216 -2.46164,-9.708466 -3.45921,-13.480696 -1.36836,-5.174393 -9.56099,-37.210433 -12.79181,-50.0204743 -0.18045,-0.715423 -0.32974,-1.43380067 -0.33176,-1.59640311 -0.003,-0.23263967 2.53868,-0.29562625 11.92972,-0.29562625 h 11.93338 l 0.47139,1.59640306 c 0.63876,2.163389 5.68461,20.9345526 8.05797,29.9768116 1.05839,4.032378 2.72701,10.205117 3.70802,13.717197 3.95968,14.17565 3.93178,14.083906 4.19994,13.815735 0.0542,-0.05419 0.58891,-3.450981 1.18822,-7.548394 1.45626,-9.955987 1.66309,-11.109244 2.75027,-15.335094 0.99906,-3.88344 1.39572,-7.862997 1.40043,-14.050466 l 0.003,-2.778908 h -1.3827 c -0.76046,0 -2.35688,-0.06912 -3.54755,-0.153674 l -2.16486,-0.153664 V 9.6612772 5.3333259e-5 h 19.23891 19.23886 L 283.52052,2.6607216 c 0.0844,1.463358 0.15381,5.8800665 0.1544,9.8148874 v 7.15423 h -1.1742 c -0.87944,0 -1.22769,0.103894 -1.38734,0.413877 -0.26644,0.517407 -1.2371,5.011076 -2.05621,9.519262 -0.65551,3.607675 -11.60637,60.514518 -11.82163,61.431765 l -0.12488,0.532138 -18.26538,-0.01504 c -10.04596,-0.0085 -18.49925,-0.109184 -18.78511,-0.224299 v 1.1e-5 z"
     id="path3440"
     inkscape:connector-curvature="0" />
  <path
     style="fill:#806600;fill-opacity:1;stroke-width:0.31775832"
     d="m 249.6528,39.259625 c -0.004,-0.195125 0.51084,-4.026479 1.14566,-8.514132 1.13525,-8.025663 1.15219,-8.10705 1.03411,-4.966564 -0.16235,4.316325 -0.66412,8.10816 -1.48664,11.233905 -0.37651,1.430846 -0.68842,2.441906 -0.69313,2.246791 z"
     id="path3442"
     inkscape:connector-curvature="0" />
  <path
     style="fill:#806600;fill-opacity:1;stroke-width:0.31775832"
     d="m 165.53872,91.705643 c -0.18957,-0.525183 -15.6254,-61.903103 -16.4311,-65.335461 -0.42747,-1.821075 -1.04302,-4.08264 -1.36787,-5.0257 l -0.59065,-1.714643 h -1.7421 -1.7421 V 9.814941 5.3333259e-5 h 22.43363 22.43362 L 188.68293,1.5964564 c 0.19468,2.0614052 0.19591,13.8896336 0.001,15.9462606 l -0.14912,1.578675 -3.14122,0.0768 c -1.72768,0.04224 -3.2214,0.157333 -3.3194,0.255701 -0.24443,0.245376 0.76969,11.489765 1.22101,13.538349 0.77283,3.507846 1.53719,7.904181 2.93864,16.902014 0.79959,5.133646 1.5401,9.488125 1.64558,9.676605 0.22724,0.406058 0.23745,0.362826 2.96782,-12.571193 1.11958,-5.303609 2.18447,-10.137575 2.36643,-10.742161 0.18195,-0.604575 0.28458,-1.174046 0.22807,-1.265481 -0.0565,-0.09141 0.95228,-5.421198 2.24174,-11.84392 3.45496,-17.2089249 4.51452,-22.25078458 4.78053,-22.74782922 0.21162,-0.39542345 0.47461,-0.4365434 2.32719,-0.3639035 1.14873,0.04501327 2.14955,0.14296514 2.22404,0.21761037 0.11591,0.1161705 0.61038,2.01158115 1.56873,6.01336765 0.12461,0.5203086 1.44011,5.7352137 2.92334,11.5886667 5.57246,21.991468 6.81614,27.330532 6.66599,28.61692 -0.0759,0.650378 -0.78737,3.577104 -1.581,6.503842 -0.79363,2.926726 -2.22761,8.354484 -3.18664,12.061668 -0.95904,3.707195 -2.9442,11.263483 -4.41149,16.791742 l -2.66779,10.051399 -19.34054,0.06048 c -15.34983,0.048 -19.36267,-6.4e-4 -19.44776,-0.236501 z"
     id="path3444"
     inkscape:connector-curvature="0" />
  <path
     style="fill:#806600;fill-opacity:1;stroke-width:0.31775832"
     d="M 22.236994,91.861131 C 22.039618,91.537974 20.856791,86.949959 13.065946,56.287868 4.9297818,24.266718 3.902879,20.338094 3.5615558,19.926831 3.4074907,19.741189 2.7052131,19.629839 1.6885105,19.629839 H 0.06194381 V 9.814941 5.3333259e-5 H 22.766274 45.4706 V 9.5557627 19.111472 l -3.291671,0.08181 c -1.810416,0.04501 -3.365954,0.156245 -3.45675,0.247221 -0.152994,0.153301 0.07454,3.513563 0.605333,8.939967 0.120875,1.235731 0.639946,4.481743 1.153488,7.213355 0.513545,2.731612 1.601839,9.251603 2.418433,14.488854 0.83893,5.380516 1.564359,9.379977 1.667818,9.195102 0.100704,-0.179946 0.536252,-1.834941 0.967879,-3.677755 0.431627,-1.842824 0.85254,-3.282822 0.93536,-3.199995 0.08282,0.08277 0.0977,-0.05163 0.03307,-0.298816 -0.113224,-0.432959 0.44796,-3.286886 5.943234,-30.224587 C 55.875247,5.0704143 56.832964,0.64180177 57.113809,0.29569026 57.274039,0.0982292 58.071872,6.3999911e-5 59.516564,6.3999911e-5 h 2.162872 L 66.584963,19.688975 c 5.783587,23.213088 6.320039,25.457128 6.320039,26.437499 0,0.408928 -1.005571,4.48553 -2.234603,9.059135 -1.22903,4.573593 -3.895075,14.594795 -5.924538,22.269323 -2.029465,7.674539 -3.769669,14.033495 -3.867118,14.13101 -0.262411,0.262602 -38.483184,0.534804 -38.641745,0.2752 z"
     id="path3446"
     inkscape:connector-curvature="0" />
  <path
     style="fill:#806600;fill-opacity:1;stroke-width:0.31775832"
     d="M 86.369675,91.37215 C 86.121646,91.305377 85.792127,90.472791 85.374272,88.857178 75.169651,49.401542 62.856949,0.50916196 63.071325,0.29463426 c 0.224731,-0.22489569 23.4539,-0.23337568 23.678917,-0.008533 0.214382,0.21410103 0.996966,3.05937704 6.361251,23.12790374 5.439873,20.35131 9.567827,35.293124 9.823397,35.557444 0.38898,0.402292 0.77285,-1.987827 3.43181,-21.367245 2.48071,-18.080231 2.43759,-17.741352 2.2704,-17.838397 -0.0761,-0.04416 -1.70813,-0.157077 -3.62676,-0.250922 l -3.48843,-0.170613 V 9.6722105 1.5999978e-4 h 19.11917 19.11916 L 139.91611,5.0048677 c 0.19706,6.3277243 0.19801,10.5075263 0.003,12.8156193 l -0.15296,1.809459 h -0.77616 c -0.42689,0 -0.92881,0.15265 -1.11538,0.339221 -0.18705,0.18704 -0.72004,2.282397 -1.18812,4.670937 -0.4669,2.38245 -3.25214,16.73042 -6.18944,31.884372 -2.93729,15.153963 -5.67154,29.228877 -6.07608,31.277578 l -0.73556,3.724933 -18.47244,-0.02741 C 95.053334,91.484534 86.57389,91.427254 86.369966,91.372289 Z"
     id="path3448"
     inkscape:connector-curvature="0" />
  <path
     style="fill:#806600;fill-opacity:1;stroke-width:0.31775832"
     d="M 22.767002,91.803798 C 22.049526,91.585526 22.716143,93.963752 16.126426,68.113036 4.5875307,22.847296 3.9487348,20.397956 3.5589565,19.925466 3.406995,19.741263 2.7020228,19.629839 1.6885105,19.629839 H 0.06194381 V 9.814941 5.3333259e-5 H 22.766274 45.4706 V 9.5557627 19.111472 l -3.291671,0.08181 c -1.810416,0.04501 -3.371501,0.161792 -3.469076,0.259541 -0.296949,0.297504 0.604066,9.582707 1.34069,13.816152 0.380925,2.189202 1.276441,7.545664 1.990034,11.903236 2.060621,12.583215 2.305035,13.953709 2.488521,13.953709 0.179387,0 1.817326,-6.108013 2.029487,-7.568117 C 47.031063,48.306183 56.229191,3.3288167 56.86875,1.1427611 57.169259,0.11559451 57.457565,0.00772266 59.914161,0.003296 L 61.704792,9.5999866e-5 62.358793,2.7790041 c 0.359702,1.5284139 2.656733,10.8141289 5.104514,20.6349259 2.447778,9.820808 4.681355,18.936326 4.963499,20.256708 l 0.512989,2.40069 -0.590493,2.447623 C 71.86575,50.5233 61.818334,88.300688 61.131029,90.698647 c -0.176086,0.614357 -0.343172,0.729023 -1.251587,0.858964 -1.563107,0.223595 -36.426505,0.454901 -37.11244,0.246229 z"
     id="path3450"
     inkscape:connector-curvature="0" />
  <path
     style="fill:#806600;fill-opacity:1;stroke-width:0.31775832"
     d="M 22.468731,91.704256 C 22.002847,91.349238 21.744039,90.373432 12.949954,55.814856 3.9193485,20.32682 3.8816116,20.186063 3.2990716,19.815652 3.1446125,19.717413 2.3530702,19.63545 1.5400919,19.633455 l -1.47814809,-0.0032 V 9.815357 4.6933268e-4 H 22.766274 45.4706 V 9.5437627 19.087056 l -3.3289,0.131776 c -1.830891,0.07243 -3.386872,0.18976 -3.457735,0.260618 -0.190912,0.190923 0.602426,8.733407 1.107741,11.927898 0.393099,2.485064 2.742371,16.653385 4.056928,24.467049 0.279018,1.658483 0.581651,3.01542 0.672517,3.01542 0.268614,0 1.831273,-6.399746 2.71416,-11.115654 0.883576,-4.719556 7.64273,-37.8325342 8.89926,-43.5972941 0.420783,-1.9304827 0.915005,-3.65990962 1.098275,-3.84318403 0.235688,-0.23569034 0.937063,-0.33321553732 2.396346,-0.33321553732 h 2.063132 L 66.952825,21.226648 c 2.893278,11.674405 5.432256,22.039052 5.642174,23.032554 0.452516,2.141672 0.7884,0.583125 -4.095947,19.005926 -5.719442,21.572653 -7.447787,27.90331 -7.683605,28.143907 -0.249357,0.254411 -14.14862,0.524149 -29.194218,0.56656 -6.678761,0.01877 -8.856875,-0.04565 -9.152498,-0.270923 z"
     id="path3452"
     inkscape:connector-curvature="0" />
  <path
     style="fill:#806600;fill-opacity:1;stroke-width:0.31775832"
     d="M 22.479818,91.731232 C 21.990645,91.341292 21.784248,90.577527 15.55418,66.102756 4.3809719,22.208929 3.8392798,20.157295 3.3396684,19.84074 3.1628804,19.72873 2.3530702,19.63545 1.5400919,19.633455 l -1.47814809,-0.0032 V 9.815357 4.6933268e-4 H 22.766274 45.4706 V 9.5421947 19.08392 l -3.214132,0.154144 c -1.767779,0.0848 -3.320536,0.219904 -3.450582,0.300277 -0.243885,0.15073 -0.21713,0.58993 0.423432,6.950518 0.394148,3.913765 4.986343,31.943476 5.282596,32.243742 0.265677,0.26928 1.587377,-5.343865 3.332121,-14.151234 C 49.857783,34.41608 55.723869,5.8230639 56.377609,2.9862465 56.673633,1.7016936 57.062134,0.50439396 57.240945,0.32558888 57.467279,0.0992532 58.195539,4.6933268e-4 59.637809,4.6933268e-4 h 2.07175 L 66.360667,18.743366 c 6.729965,27.120197 6.612913,26.614651 6.4477,27.848281 -0.124214,0.92754 -9.851683,37.851862 -11.306041,42.91641 -0.521571,1.816285 -0.570112,1.889267 -1.368515,2.057256 -0.455268,0.09579 -9.022604,0.244991 -19.038524,0.331551 -15.200807,0.131381 -18.277654,0.104107 -18.615469,-0.165216 z"
     id="path3454"
     inkscape:connector-curvature="0" />
  <path
     style="fill:#aa8800;fill-opacity:1;stroke-width:0.31775832"
     d="M 22.342406,91.704256 C 21.963648,91.247745 21.425356,89.201668 13.30489,57.352134 6.9662693,32.49124 4.6654863,23.633172 3.6815572,20.302084 3.5378511,19.815578 2.9039455,19.637231 1.3035875,19.633071 l -1.24164369,-0.0032 V 9.814973 8.5333215e-5 H 22.766274 45.4706 V 9.5440721 19.088069 l -3.251923,0.167264 c -1.788556,0.09205 -3.338248,0.252341 -3.443762,0.35632 -0.414911,0.408863 0.925893,10.720294 3.164043,24.332979 1.292018,7.858219 2.349127,14.382316 2.349127,14.497985 0,0.11567 0.09329,0.210315 0.207311,0.210315 0.360269,0 1.378493,-4.578042 5.233877,-23.532085 C 56.516263,1.7542696 56.709495,0.85664947 57.213978,0.35217018 57.472665,0.09348254 58.120825,8.5333215e-5 59.657428,8.5333215e-5 h 2.091367 L 65.807411,16.37794 c 5.88748,23.75794 7.097586,28.809858 7.097586,29.630828 0,1.216084 -11.637837,44.952151 -12.078956,45.393825 -0.539033,0.539711 -38.042217,0.833716 -38.483635,0.301695 z"
     id="path3456"
     inkscape:connector-curvature="0" />
  <path
     style="fill:#aa8800;fill-opacity:1;stroke-width:0.31775832"
     d="m 285.87306,82.208526 v -9.791357 l 2.10912,-0.08267 c 1.16001,-0.04544 2.19368,-0.167349 2.29701,-0.270858 0.10336,-0.103467 0.23162,-11.943461 0.28504,-26.311004 l 0.0972,-26.122801 h -2.39415 -2.39415 V 9.814941 5.3333259e-5 h 21.64006 21.64007 V 9.814941 19.629839 h -2.33288 -2.3329 l -0.15042,1.097268 c -0.19634,1.432628 -0.19634,49.113105 0,50.545722 l 0.15042,1.097268 h 2.3329 2.33288 v 9.814898 9.814888 h -21.6401 -21.64006 z"
     id="path3458"
     inkscape:connector-curvature="0" />
  <path
     style="fill:#aa8800;fill-opacity:1;stroke-width:0.31775832"
     d="m 232.84175,91.350188 c -2.60934,-0.064 -3.04121,-0.130539 -3.23828,-0.498784 -0.26625,-0.497503 -3.00129,-10.889478 -7.32271,-27.823193 C 220.58781,56.39429 218.03653,46.443413 216.61125,40.915143 210.4336,16.953406 206.36598,0.67264973 206.51878,0.51964728 c 0.0906,-0.0906665 5.45813,-0.19769573 11.92797,-0.23784501 l 11.76335,-0.0729599 0.76726,2.79279613 c 0.42201,1.5360299 3.0011,11.1472805 5.73128,21.3583065 7.47177,27.944548 9.54409,35.234969 9.90516,34.846159 0.10133,-0.10913 0.57552,-2.859068 1.05378,-6.110989 1.14699,-7.799306 1.96295,-12.692409 2.40022,-14.39375 0.19596,-0.762335 0.29708,-1.445236 0.22475,-1.517555 -0.0723,-0.07232 -0.13149,0.06357 -0.13149,0.302079 0,0.238475 -0.0579,0.37568 -0.12869,0.304906 -0.0707,-0.07083 0.27238,-2.988625 0.76259,-6.484129 0.64695,-4.613444 0.933,-6.128578 1.04355,-5.527694 0.0837,0.455264 0.16631,-0.729983 0.18344,-2.633884 l 0.0311,-3.461649 -3.54755,-0.171807 -3.54754,-0.171808 V 9.6699599 9.5999866e-5 h 19.1272 19.12721 L 283.36024,0.73916697 c 0.0813,0.40649543 0.14782,4.82319333 0.14782,9.81489803 v 9.075817 h -1.03532 c -0.56942,0 -1.13922,0.133035 -1.26623,0.295626 -0.40362,0.516693 -0.88811,2.884444 -5.35944,26.192753 -2.40797,12.55242 -5.36284,27.904452 -6.56638,34.115622 l -2.18824,11.29304 -15.61993,-0.05141 c -8.59094,-0.02827 -16.9748,-0.08469 -18.63076,-0.12529 z m 18.61498,-59.252921 c 0.19793,-1.402803 0.34495,-3.158843 0.32675,-3.902309 -0.026,-1.069321 -0.0722,-0.879721 -0.22037,0.907412 -0.10304,1.242548 -0.34782,3.158225 -0.54407,4.257061 -0.61162,3.42455 -0.6465,3.742544 -0.27121,2.470887 0.19196,-0.650378 0.51096,-2.330258 0.7089,-3.733051 z"
     id="path3460"
     inkscape:connector-curvature="0" />
  <path
     style="fill:#aa8800;fill-opacity:1;stroke-width:0.31775832"
     d="m 167.23316,91.8248 c -1.5175,-0.07285 -1.70061,-0.134122 -1.80381,-0.603391 -0.59493,-2.705233 -17.14423,-68.167308 -17.60562,-69.640415 l -0.6111,-1.951155 h -1.73906 -1.73906 V 9.814941 5.3333259e-5 h 22.32428 c 20.5932,0 22.33597,0.03050662674 22.4751,0.393087456741 0.19736,0.51427128 0.1979,17.85488721 3.2e-4,18.36907321 -0.12768,0.333034 -0.53029,0.394623 -2.57973,0.394623 -1.33563,0 -2.77565,0.06944 -3.20005,0.154315 l -0.77162,0.154325 0.16185,2.742844 c 0.27499,4.659983 0.82445,9.205406 1.57521,13.030745 0.39569,2.016189 1.34562,7.550368 2.11094,12.29818 1.95922,12.154362 1.94274,12.061668 2.1454,12.061668 0.21391,0 0.39745,-0.783572 2.46506,-10.524401 0.85593,-4.032378 1.86805,-8.715145 2.24918,-10.406151 0.38112,-1.690995 0.86302,-4.078618 1.07089,-5.305827 0.3935,-2.323176 4.47738,-22.747584 5.81265,-29.070445 0.42173,-1.9969572 0.91554,-3.77960005 1.09738,-3.96143446 0.35615,-0.35614884 1.47547,-0.41932742 3.21201,-0.18131175 0.95782,0.13128515 1.11758,0.23823967 1.32476,0.88688941 0.45434,1.4224407 9.20676,36.4893998 10.04708,40.2540138 0.46704,2.092423 0.84917,4.207023 0.84917,4.699118 0,1.044394 -0.53666,3.166471 -6.94068,27.444997 l -4.80352,18.210769 -5.42093,0.146325 c -5.61768,0.151637 -28.73636,0.175957 -31.70624,0.03339 z"
     id="path3462"
     inkscape:connector-curvature="0" />
  <path
     style="fill:#aa8800;fill-opacity:1;stroke-width:0.31775832"
     d="M 88.57385,91.350604 C 86.64474,91.285857 86.234644,91.204086 86.042995,90.845986 85.544597,89.914723 63.086844,1.4682966 63.086844,0.43670339 c 0,-0.11311984 5.301601,-0.17711975 11.862795,-0.14321047 l 11.862798,0.0613333 0.439885,1.53727788 c 0.241938,0.8455029 2.572988,9.4660459 5.180116,19.1567729 4.82779,17.944978 8.136062,30.057132 9.581782,35.080549 0.44286,1.538803 0.8052,2.863815 0.8052,2.944465 0,0.08064 0.10088,0.04555 0.22418,-0.07808 0.35808,-0.358869 1.065,-4.787342 2.94289,-18.435441 2.57952,-18.747504 2.8332,-20.685208 2.72245,-20.79596 -0.0554,-0.05536 -1.66921,-0.176896 -3.58634,-0.270101 l -3.4857,-0.169461 V 9.6624399 3.1999955e-5 h 19.0024 19.00238 L 139.79499,2.6607003 c 0.19483,3.38103 0.19746,14.9098457 0.003,16.0822287 -0.12687,0.767572 -0.2318,0.886889 -0.77995,0.886889 -1.06441,0 -1.38871,0.468853 -1.88131,2.719783 -0.2562,1.170697 -3.35269,17.028254 -6.88109,35.239012 -3.5284,18.21077 -6.46954,33.296733 -6.53586,33.524359 -0.11354,0.389642 -1.07884,0.410986 -16.48253,0.364383 -8.999054,-0.0272 -17.397886,-0.08427 -18.664068,-0.126773 z"
     id="path3464"
     inkscape:connector-curvature="0" />
  <path
     style="fill:#aa8800;fill-opacity:1;stroke-width:0.31775832"
     d="M 24.419364,91.841398 C 23.379205,91.786358 22.447677,91.660896 22.349305,91.562529 21.98606,91.199276 22.050091,91.443979 9.8698654,43.871438 4.4586161,22.736619 3.7860044,20.278692 3.3170535,19.925466 3.1011877,19.762874 2.3063534,19.629839 1.5507527,19.629839 H 0.17693736 V 9.814941 5.3333259e-5 H 22.763014 45.349089 V 9.5430694 19.086096 l -3.114617,0.164427 c -1.713034,0.09045 -3.217849,0.228223 -3.344021,0.306207 -0.477752,0.295264 0.339986,7.276982 2.335419,19.939396 1.960162,12.438618 2.963347,18.562993 3.099177,18.920273 0.376489,0.990292 1.003696,-1.724787 5.627366,-24.359849 4.047532,-19.814628 6.448434,-31.3369591 6.751368,-32.4009683 0.429111,-1.50718724 0.485452,-1.53727786 2.879095,-1.53727786 h 2.190136 L 64.667807,11.825221 c 5.774682,23.353546 7.925896,32.305544 8.041881,33.465233 0.09072,0.90706 -0.13863,2.201715 -0.984581,5.557838 -2.459472,9.757362 -9.285022,35.27946 -10.467832,39.141311 l -0.434621,1.419016 -2.119826,0.152171 c -2.562359,0.183936 -31.614755,0.421717 -34.283464,0.280608 z"
     id="path3466"
     inkscape:connector-curvature="0" />
  <path
     style="fill:#aa8800;fill-opacity:1;stroke-width:0.31775832"
     d="m 331.28174,82.184995 v -9.814898 h 2.36501 2.36504 V 45.999968 19.629839 h -2.36504 -2.36501 V 9.814941 5.3333259e-5 h 21.52179 21.52181 V 9.6670372 19.334021 l -2.01545,0.105813 c -1.1085,0.05813 -2.109,0.204565 -2.22335,0.325291 -0.11589,0.122367 -0.24442,11.783642 -0.29044,26.353126 l -0.0826,26.133627 2.30591,0.06773 2.30591,0.06773 V 82.193678 92 h -21.52181 -21.52179 z"
     id="path3468"
     inkscape:connector-curvature="0" />
  <path
     style="fill:#806600;fill-opacity:1;stroke-width:0.31775832"
     d="m 232.31731,91.38463 c -0.028,-0.02549 -0.63593,-0.08373 -1.35136,-0.129418 l -1.30078,-0.08309 -0.65235,-2.365031 C 225.46168,75.932609 209.67146,14.074572 206.64532,1.182569 l -0.1943,-0.82776416 11.87727,-0.0889599 11.87727,-0.0889599 0.3671,1.27144366 c 0.20191,0.699295 1.07279,3.9321117 1.93527,7.1840326 0.8625,3.2519207 2.24598,8.4136097 3.07441,11.4704157 0.8284,3.056807 2.37048,8.803839 3.42678,12.771193 2.32302,8.724969 5.97455,21.889346 6.78106,24.447102 0.32312,1.024703 0.6765,1.76868 0.78635,1.655518 0.10972,-0.113024 0.68845,-3.398299 1.28603,-7.300609 0.59761,-3.902298 1.36232,-8.585065 1.69941,-10.40615 0.33707,-1.821075 0.60347,-3.680699 0.59204,-4.132507 -0.0296,-1.162643 1.36855,-10.880689 1.63763,-11.383504 0.12272,-0.22928 0.2231,-1.700989 0.2231,-3.270459 v -2.853586 l -1.24164,-0.02773 c -0.6829,-0.01525 -2.30592,-0.09515 -3.60665,-0.177376 L 244.8014,19.275067 244.73964,9.6375546 244.67788,4.2666607e-5 H 263.928 283.17808 L 283.32069,0.53216993 c 0.0784,0.29267159 0.14407,4.70938007 0.14585,9.81489807 l 0.003,9.28275 -0.88689,0.0032 c -1.14448,0.0043 -1.43478,0.206069 -1.72334,1.195529 -0.2346,0.804479 -4.34347,21.872236 -10.50518,53.864554 -1.76181,9.14754 -3.20332,16.686676 -3.20332,16.75363 0,0.109846 -34.71351,0.04757 -34.83365,-0.06251 z m 19.21227,-59.929623 c 0.13603,-1.105652 0.23749,-2.38277 0.22548,-2.838044 -0.012,-0.455264 -0.21359,0.609002 -0.44793,2.365042 -0.23433,1.756029 -0.48675,3.618502 -0.56095,4.13881 -0.0966,0.67761 -0.0397,0.576959 0.20057,-0.354762 0.18453,-0.715423 0.44677,-2.205394 0.58283,-3.311046 z"
     id="path3399"
     inkscape:connector-curvature="0" />
  <path
     style="fill:#806600;fill-opacity:1;stroke-width:0.31775832"
     d="m 165.6907,91.763563 c 0.18603,-0.114976 0.20081,-0.210954 0.0412,-0.267178 -0.13706,-0.04832 -1.80441,-6.313709 -3.7052,-13.923213 -4.51332,-18.068241 -13.72757,-54.306314 -14.32732,-56.34694 l -0.4692,-1.596393 h -1.76697 -1.76696 V 9.814941 5.3333259e-5 L 164.80415,0.0234133 c 11.60936,0.01290665 21.69329,0.09269321 22.40871,0.17737575 l 1.30077,0.15398379 0.062,9.07772606 c 0.0415,6.0811431 -0.02,9.1764991 -0.18636,9.3769471 -0.16821,0.202677 -1.19283,0.326047 -3.17607,0.38241 -1.61026,0.04576 -3.0075,0.163018 -3.10499,0.260586 -0.32421,0.324469 0.62444,9.913362 1.45601,14.717249 0.45082,2.604327 1.56604,9.25827 2.47827,14.78654 0.91222,5.528269 1.71905,10.211036 1.79294,10.40615 0.10442,0.275669 0.1786,0.240171 0.33283,-0.159199 0.20562,-0.53248 4.53344,-20.449305 5.0788,-23.372896 1.12478,-6.029741 5.85595,-29.4958308 6.50869,-32.2824509 0.64084,-2.7358469 0.89428,-3.29136612 1.58006,-3.46348322 0.84526,-0.21214904 3.1648,0.07381323 3.52558,0.43458073 0.33234,0.33236221 2.65812,9.28602439 7.2065,27.74324639 3.39625,13.781848 3.79614,15.46224 3.82732,16.082229 0.013,0.260159 0.13132,0.545588 0.26275,0.634292 0.15659,0.105707 0.0944,0.79858 -0.18049,2.01028 -0.99392,4.381626 -11.44506,44.322914 -11.65231,44.531799 -0.0612,0.06165 -3.11171,0.190741 -6.77888,0.286763 -8.5552,0.22401 -32.23622,0.191295 -31.85549,-0.04405 z"
     id="path3405"
     inkscape:connector-curvature="0" />
  <path
     style="fill:#806600;fill-opacity:1;stroke-width:0.31775832"
     d="M 90.482911,91.358465 C 86.640921,91.280065 86.27213,91.20639 85.988385,90.460087 85.498747,89.172249 80.252894,68.861579 72.153442,36.894583 70.291346,29.545239 67.480972,18.487046 65.908163,12.320815 64.335355,6.1545941 63.048513,0.97563598 63.048513,0.8120202 c 0,-0.40990876 3.608282,-0.57678853 13.953702,-0.6453751 4.61773,-0.0306133 7.384821,0.008533 6.14909,0.0872532 -2.193746,0.13957314 -2.176362,0.14245314 0.736491,0.12190917 l 2.983277,-0.0210133 1.804911,6.74034263 c 3.22512,12.0440362 8.395937,31.1213222 11.025759,40.6785892 1.413807,5.13804 2.692787,9.80773 2.842167,10.377105 0.59536,2.269192 0.79479,1.207358 3.65909,-19.48249 1.22454,-8.845225 2.2982,-16.73475 2.38593,-17.532274 l 0.15948,-1.450046 -3.57492,-0.173131 -3.57492,-0.17313 V 9.6698959 3.1999955e-5 h 19.00382 19.00383 L 139.75918,1.8094908 c 0.25448,3.0106305 0.18124,16.8525422 -0.0918,17.3628662 -0.13466,0.251605 -0.44215,0.457461 -0.68331,0.457461 -0.92623,0 -1.39402,0.763807 -1.88302,3.074545 -0.2615,1.235732 -2.08209,10.494844 -4.04577,20.575801 -4.54004,23.307263 -8.7008,44.643095 -9.06282,46.472916 l -0.28074,1.419028 -1.18252,0.15665 c -1.11632,0.147893 -25.158902,0.170165 -32.046217,0.02965 z"
     id="path3407"
     inkscape:connector-curvature="0" />
  <path
     style="fill:#806600;fill-opacity:1;stroke-width:0.31775832"
     d="M 23.434192,91.804064 C 22.310317,91.653014 22.23631,91.598219 21.94184,90.699116 21.446926,89.187983 19.522142,81.766702 12.43421,54.041087 5.7394618,27.853455 4.1268161,21.693858 3.6630891,20.539246 3.3774657,19.828079 2.8730118,19.637701 1.2619962,19.633071 L 0.138603,19.629871 V 9.814973 8.5333215e-5 H 22.845615 45.552626 L 45.490812,9.5193468 l -0.0618,9.5192612 -3.232559,0.236501 c -1.777909,0.13008 -3.307737,0.31184 -3.399616,0.403914 -0.381606,0.382389 0.968971,10.42902 3.697323,27.503493 0.914551,5.723384 1.724456,10.658982 1.799796,10.967995 0.348801,1.430643 0.737159,-0.256373 6.202589,-26.943962 C 55.705723,5.7702106 56.589904,1.6016191 56.937897,0.83785483 57.25632,0.13899714 57.736901,0.00738132 59.985209,0.00331733 L 61.770223,1.1733317e-4 66.434092,18.861264 c 5.543351,22.417836 6.352474,25.878332 6.344216,27.133211 -0.0094,1.43172 -6.635921,26.913605 -11.164085,42.930927 l -0.768895,2.719782 -1.440822,0.02187 c -10.937921,0.166133 -35.069783,0.25808 -35.970312,0.137045 v 1.1e-5 z"
     id="path3409"
     inkscape:connector-curvature="0" />
  <path
     style="fill:#806600;fill-opacity:1;stroke-width:0.31775832"
     d="m 285.98215,82.184995 v -9.814898 l 1.59642,-0.0032 c 2.42567,-0.0053 2.60059,-0.09259 2.75213,-1.379252 0.0714,-0.605439 0.19971,-12.408623 0.28529,-26.229297 l 0.15564,-25.128498 h -2.39473 -2.39475 V 9.8149623 7.4666563e-5 h 21.52183 21.52179 V 9.8149623 19.62985 h -2.32808 -2.32809 l -0.13461,13.18507 c -0.074,7.251787 -0.0742,19.118341 -2.5e-4,26.370128 l 0.13426,13.18507 h 2.32843 2.32844 v 9.814888 9.814898 h -21.5218 -21.52179 v -9.814898 h -1.3e-4 z"
     id="path3411"
     inkscape:connector-curvature="0" />
  <path
     style="fill:#806600;fill-opacity:1;stroke-width:0.31775832"
     d="m 331.39081,82.184995 v -9.814898 h 2.36502 2.36505 V 45.999968 19.629839 h -2.36505 -2.36502 V 9.814941 5.3333259e-5 h 21.40354 21.40356 V 9.6628986 19.325744 l -1.91878,0.13152 c -1.05534,0.07232 -2.03092,0.243615 -2.1679,0.380628 -0.17013,0.170112 -0.28443,8.539029 -0.36047,26.390662 l -0.11134,26.141543 h 2.27925 2.27924 v 9.814898 9.814888 h -21.40356 -21.40354 z"
     id="path3413"
     inkscape:connector-curvature="0" />
</svg>
