<svg height='18px' width='21px'  fill="#FFFFFF" xmlns="http://www.w3.org/2000/svg" xmlns:xlink="http://www.w3.org/1999/xlink" version="1.1" x="0px" y="0px" viewBox="0 0 168.292 195" enable-background="new 0 0 168.292 195" xml:space="preserve"><path d="M35.659,145.451c-1.68,0.84-5.46,1.74-10.379,1.74c-13.979,0-21.179-8.699-21.179-20.219c0-13.801,9.839-21.48,22.079-21.48  c4.74,0,8.339,0.961,9.959,1.801l-1.86,7.26c-1.86-0.779-4.44-1.5-7.68-1.5c-7.26,0-12.899,4.381-12.899,13.379  c0,8.1,4.8,13.2,12.959,13.2c2.76,0,5.819-0.601,7.62-1.319L35.659,145.451z"></path><path d="M41.959,137.173c2.46,1.261,6.24,2.521,10.14,2.521c4.2,0,6.42-1.74,6.42-4.381c0-2.52-1.92-3.959-6.78-5.699  c-6.72-2.34-11.1-6.061-11.1-11.938c0-6.897,5.76-12.181,15.299-12.181c4.56,0,7.92,0.961,10.319,2.039l-2.04,7.381  c-1.62-0.778-4.5-1.92-8.46-1.92c-3.959,0-5.879,1.801-5.879,3.9c0,2.58,2.28,3.719,7.5,5.698c7.14,2.642,10.5,6.36,10.5,12.06  c0,6.781-5.22,12.541-16.319,12.541c-4.62,0-9.18-1.201-11.459-2.461L41.959,137.173z"></path><path d="M83.599,146.591L70.64,106.152h10.02l4.919,17.102c1.381,4.801,2.641,9.42,3.601,14.46h0.18  c1.021-4.858,2.28-9.659,3.66-14.278l5.16-17.279h9.719l-13.618,40.438L83.599,146.591L83.599,146.591z"></path><path d="M113.36,44.452h29.142c-8.744-12.276-25.854-31.729-35.533-40.235v32.901C106.968,41.162,109.835,44.452,113.36,44.452z"></path><path d="M147.98,79.933V54.878h-34.62c-8.532,0-15.478-7.967-15.478-17.76V0H13.115C7.075,0,2.18,5.617,2.18,12.549v38.624h0.023  v36.759h159.378v75.286H2.204v18.887c0.24,6.686,5.025,12.025,10.912,12.025h123.932c6.039,0,10.934-5.619,10.934-12.549v-10.363  h21.602V79.933H147.98z"></path></svg>